<?xml version="1.0" encoding="UTF-8" standalone="no"?>
<!DOCTYPE svg PUBLIC "-//W3C//DTD SVG 1.1//EN"
 "http://www.w3.org/Graphics/SVG/1.1/DTD/svg11.dtd">
<!-- Generated by graphviz version 2.40.1 (20161225.0304)
 -->
<!-- Title: controllers_diagram Pages: 1 -->
<svg width="610pt" height="623pt"
 viewBox="0.00 0.00 609.78 623.00" xmlns="http://www.w3.org/2000/svg" xmlns:xlink="http://www.w3.org/1999/xlink">
<g id="graph0" class="graph" transform="scale(1 1) rotate(0) translate(4 619)">
<title>controllers_diagram</title>
<polygon fill="transparent" stroke="transparent" points="-4,4 -4,-619 605.7793,-619 605.7793,4 -4,4"/>
<!-- _diagram_info -->
<g id="node1" class="node">
<title>_diagram_info</title>
<text text-anchor="start" x="72" y="-154.6" font-family="Times,serif" font-size="13.00" fill="#000000">Controllers diagram</text>
<text text-anchor="start" x="72" y="-141.6" font-family="Times,serif" font-size="13.00" fill="#000000">Date: Aug 05 2019 &#45; 21:53</text>
<text text-anchor="start" x="72" y="-128.6" font-family="Times,serif" font-size="13.00" fill="#000000">Migration version: 20190722230157</text>
<text text-anchor="start" x="72" y="-115.6" font-family="Times,serif" font-size="13.00" fill="#000000">Generated by RailRoady 1.5.3</text>
<text text-anchor="start" x="72" y="-102.6" font-family="Times,serif" font-size="13.00" fill="#000000">http://railroady.prestonlee.com</text>
</g>
<!-- ApplicationController -->
<g id="node2" class="node">
<title>ApplicationController</title>
<path fill="none" stroke="#000000" d="M316,-336.5C316,-336.5 431.6416,-336.5 431.6416,-336.5 437.6416,-336.5 443.6416,-342.5 443.6416,-348.5 443.6416,-348.5 443.6416,-472.5 443.6416,-472.5 443.6416,-478.5 437.6416,-484.5 431.6416,-484.5 431.6416,-484.5 316,-484.5 316,-484.5 310,-484.5 304,-478.5 304,-472.5 304,-472.5 304,-348.5 304,-348.5 304,-342.5 310,-336.5 316,-336.5"/>
<text text-anchor="middle" x="373.8208" y="-469.3" font-family="Times,serif" font-size="14.00" fill="#000000">ApplicationController</text>
<polyline fill="none" stroke="#000000" points="304,-462.5 443.6416,-462.5 "/>
<polyline fill="none" stroke="#000000" points="304,-438.5 443.6416,-438.5 "/>
<polyline fill="none" stroke="#000000" points="304,-414.5 443.6416,-414.5 "/>
<text text-anchor="start" x="312" y="-399.3" font-family="Times,serif" font-size="14.00" fill="#000000">current_user</text>
<text text-anchor="start" x="312" y="-385.3" font-family="Times,serif" font-size="14.00" fill="#000000">cuser_is?</text>
<text text-anchor="start" x="312" y="-371.3" font-family="Times,serif" font-size="14.00" fill="#000000">cuser_is_in?</text>
<text text-anchor="start" x="312" y="-357.3" font-family="Times,serif" font-size="14.00" fill="#000000">is_p_admin?</text>
<text text-anchor="start" x="312" y="-343.3" font-family="Times,serif" font-size="14.00" fill="#000000">require_login</text>
</g>
<!-- StepsController -->
<g id="node3" class="node">
<title>StepsController</title>
<path fill="none" stroke="#000000" d="M172,-336.5C172,-336.5 265.8555,-336.5 265.8555,-336.5 271.8555,-336.5 277.8555,-342.5 277.8555,-348.5 277.8555,-348.5 277.8555,-498.5 277.8555,-498.5 277.8555,-504.5 271.8555,-510.5 265.8555,-510.5 265.8555,-510.5 172,-510.5 172,-510.5 166,-510.5 160,-504.5 160,-498.5 160,-498.5 160,-348.5 160,-348.5 160,-342.5 166,-336.5 172,-336.5"/>
<text text-anchor="middle" x="218.9277" y="-495.3" font-family="Times,serif" font-size="14.00" fill="#000000">StepsController</text>
<polyline fill="none" stroke="#000000" points="160,-488.5 277.8555,-488.5 "/>
<text text-anchor="start" x="168" y="-473.3" font-family="Times,serif" font-size="14.00" fill="#000000">add_visuals</text>
<text text-anchor="start" x="168" y="-459.3" font-family="Times,serif" font-size="14.00" fill="#000000">create</text>
<text text-anchor="start" x="168" y="-445.3" font-family="Times,serif" font-size="14.00" fill="#000000">csv_steps</text>
<text text-anchor="start" x="168" y="-431.3" font-family="Times,serif" font-size="14.00" fill="#000000">destroy</text>
<text text-anchor="start" x="168" y="-417.3" font-family="Times,serif" font-size="14.00" fill="#000000">save_step</text>
<text text-anchor="start" x="168" y="-403.3" font-family="Times,serif" font-size="14.00" fill="#000000">update</text>
<polyline fill="none" stroke="#000000" points="160,-396.5 277.8555,-396.5 "/>
<polyline fill="none" stroke="#000000" points="160,-372.5 277.8555,-372.5 "/>
<text text-anchor="start" x="168" y="-357.3" font-family="Times,serif" font-size="14.00" fill="#000000">save_step_params</text>
<text text-anchor="start" x="168" y="-343.3" font-family="Times,serif" font-size="14.00" fill="#000000">step_params</text>
</g>
<!-- OemsController -->
<g id="node4" class="node">
<title>OemsController</title>
<path fill="none" stroke="#000000" d="M12,-352.5C12,-352.5 119.8486,-352.5 119.8486,-352.5 125.8486,-352.5 131.8486,-358.5 131.8486,-364.5 131.8486,-364.5 131.8486,-430.5 131.8486,-430.5 131.8486,-436.5 125.8486,-442.5 119.8486,-442.5 119.8486,-442.5 12,-442.5 12,-442.5 6,-442.5 0,-436.5 0,-430.5 0,-430.5 0,-364.5 0,-364.5 0,-358.5 6,-352.5 12,-352.5"/>
<text text-anchor="middle" x="65.9243" y="-427.3" font-family="Times,serif" font-size="14.00" fill="#000000">OemsController</text>
<polyline fill="none" stroke="#000000" points="0,-420.5 131.8486,-420.5 "/>
<text text-anchor="start" x="8" y="-405.3" font-family="Times,serif" font-size="14.00" fill="#000000">update</text>
<polyline fill="none" stroke="#000000" points="0,-398.5 131.8486,-398.5 "/>
<polyline fill="none" stroke="#000000" points="0,-374.5 131.8486,-374.5 "/>
<text text-anchor="start" x="8" y="-359.3" font-family="Times,serif" font-size="14.00" fill="#000000">update_oem_params</text>
</g>
<!-- SessionsController -->
<g id="node5" class="node">
<title>SessionsController</title>
<path fill="none" stroke="#000000" d="M492,-304.5C492,-304.5 589.7793,-304.5 589.7793,-304.5 595.7793,-304.5 601.7793,-310.5 601.7793,-316.5 601.7793,-316.5 601.7793,-382.5 601.7793,-382.5 601.7793,-388.5 595.7793,-394.5 589.7793,-394.5 589.7793,-394.5 492,-394.5 492,-394.5 486,-394.5 480,-388.5 480,-382.5 480,-382.5 480,-316.5 480,-316.5 480,-310.5 486,-304.5 492,-304.5"/>
<text text-anchor="middle" x="540.8896" y="-379.3" font-family="Times,serif" font-size="14.00" fill="#000000">SessionsController</text>
<polyline fill="none" stroke="#000000" points="480,-372.5 601.7793,-372.5 "/>
<text text-anchor="start" x="488" y="-357.3" font-family="Times,serif" font-size="14.00" fill="#000000">create</text>
<polyline fill="none" stroke="#000000" points="480,-350.5 601.7793,-350.5 "/>
<polyline fill="none" stroke="#000000" points="480,-326.5 601.7793,-326.5 "/>
<text text-anchor="start" x="488" y="-311.3" font-family="Times,serif" font-size="14.00" fill="#000000">deactivated?</text>
</g>
<!-- Users::ConfirmationsController -->
<g id="node6" class="node">
<title>Users::ConfirmationsController</title>
<path fill="none" stroke="#000000" d="M124,-208.5C124,-208.5 293.3242,-208.5 293.3242,-208.5 299.3242,-208.5 305.3242,-214.5 305.3242,-220.5 305.3242,-220.5 305.3242,-288.5 305.3242,-288.5 305.3242,-294.5 299.3242,-300.5 293.3242,-300.5 293.3242,-300.5 124,-300.5 124,-300.5 118,-300.5 112,-294.5 112,-288.5 112,-288.5 112,-220.5 112,-220.5 112,-214.5 118,-208.5 124,-208.5"/>
<text text-anchor="middle" x="208.6621" y="-285.3" font-family="Times,serif" font-size="14.00" fill="#000000">Users::ConfirmationsController</text>
<polyline fill="none" stroke="#000000" points="112,-278.5 305.3242,-278.5 "/>
<text text-anchor="start" x="120" y="-263.3" font-family="Times,serif" font-size="14.00" fill="#000000">confirmation_password</text>
<polyline fill="none" stroke="#000000" points="112,-256.5 305.3242,-256.5 "/>
<polyline fill="none" stroke="#000000" points="112,-232.5 305.3242,-232.5 "/>
</g>
<!-- OperatorsController -->
<g id="node7" class="node">
<title>OperatorsController</title>
<path fill="none" stroke="#000000" d="M12,-480.5C12,-480.5 116.7451,-480.5 116.7451,-480.5 122.7451,-480.5 128.7451,-486.5 128.7451,-492.5 128.7451,-492.5 128.7451,-602.5 128.7451,-602.5 128.7451,-608.5 122.7451,-614.5 116.7451,-614.5 116.7451,-614.5 12,-614.5 12,-614.5 6,-614.5 0,-608.5 0,-602.5 0,-602.5 0,-492.5 0,-492.5 0,-486.5 6,-480.5 12,-480.5"/>
<text text-anchor="middle" x="64.3726" y="-599.3" font-family="Times,serif" font-size="14.00" fill="#000000">OperatorsController</text>
<polyline fill="none" stroke="#000000" points="0,-592.5 128.7451,-592.5 "/>
<text text-anchor="start" x="8" y="-577.3" font-family="Times,serif" font-size="14.00" fill="#000000">destroy</text>
<text text-anchor="start" x="8" y="-563.3" font-family="Times,serif" font-size="14.00" fill="#000000">oadmin_op_index</text>
<text text-anchor="start" x="8" y="-549.3" font-family="Times,serif" font-size="14.00" fill="#000000">oembus_op_index</text>
<text text-anchor="start" x="8" y="-535.3" font-family="Times,serif" font-size="14.00" fill="#000000">update</text>
<polyline fill="none" stroke="#000000" points="0,-528.5 128.7451,-528.5 "/>
<polyline fill="none" stroke="#000000" points="0,-504.5 128.7451,-504.5 "/>
</g>
<!-- OemBusinessesController -->
<g id="node8" class="node">
<title>OemBusinessesController</title>
<path fill="none" stroke="#000000" d="M316,-.5C316,-.5 454.207,-.5 454.207,-.5 460.207,-.5 466.207,-6.5 466.207,-12.5 466.207,-12.5 466.207,-94.5 466.207,-94.5 466.207,-100.5 460.207,-106.5 454.207,-106.5 454.207,-106.5 316,-106.5 316,-106.5 310,-106.5 304,-100.5 304,-94.5 304,-94.5 304,-12.5 304,-12.5 304,-6.5 310,-.5 316,-.5"/>
<text text-anchor="middle" x="385.1035" y="-91.3" font-family="Times,serif" font-size="14.00" fill="#000000">OemBusinessesController</text>
<polyline fill="none" stroke="#000000" points="304,-84.5 466.207,-84.5 "/>
<text text-anchor="start" x="312" y="-69.3" font-family="Times,serif" font-size="14.00" fill="#000000">oem_oembus_index</text>
<text text-anchor="start" x="312" y="-55.3" font-family="Times,serif" font-size="14.00" fill="#000000">show</text>
<polyline fill="none" stroke="#000000" points="304,-48.5 466.207,-48.5 "/>
<polyline fill="none" stroke="#000000" points="304,-24.5 466.207,-24.5 "/>
</g>
<!-- OperatorAdminsController -->
<g id="node9" class="node">
<title>OperatorAdminsController</title>
<path fill="none" stroke="#000000" d="M348,-144.5C348,-144.5 491.6348,-144.5 491.6348,-144.5 497.6348,-144.5 503.6348,-150.5 503.6348,-156.5 503.6348,-156.5 503.6348,-252.5 503.6348,-252.5 503.6348,-258.5 497.6348,-264.5 491.6348,-264.5 491.6348,-264.5 348,-264.5 348,-264.5 342,-264.5 336,-258.5 336,-252.5 336,-252.5 336,-156.5 336,-156.5 336,-150.5 342,-144.5 348,-144.5"/>
<text text-anchor="middle" x="419.8174" y="-249.3" font-family="Times,serif" font-size="14.00" fill="#000000">OperatorAdminsController</text>
<polyline fill="none" stroke="#000000" points="336,-242.5 503.6348,-242.5 "/>
<text text-anchor="start" x="344" y="-227.3" font-family="Times,serif" font-size="14.00" fill="#000000">destroy</text>
<text text-anchor="start" x="344" y="-213.3" font-family="Times,serif" font-size="14.00" fill="#000000">oembus_oadmin_index</text>
<text text-anchor="start" x="344" y="-199.3" font-family="Times,serif" font-size="14.00" fill="#000000">update</text>
<polyline fill="none" stroke="#000000" points="336,-192.5 503.6348,-192.5 "/>
<polyline fill="none" stroke="#000000" points="336,-168.5 503.6348,-168.5 "/>
</g>
</g>
</svg>
