<?xml version="1.0" encoding="UTF-8" standalone="no"?>
<!DOCTYPE svg PUBLIC "-//W3C//DTD SVG 1.1//EN"
 "http://www.w3.org/Graphics/SVG/1.1/DTD/svg11.dtd">
<!-- Generated by graphviz version 2.38.0 (20140413.2041)
 -->
<!-- Title: controllers_diagram Pages: 1 -->
<svg width="768pt" height="749pt"
 viewBox="0.00 0.00 768.50 749.00" xmlns="http://www.w3.org/2000/svg" xmlns:xlink="http://www.w3.org/1999/xlink">
<g id="graph0" class="graph" transform="scale(1 1) rotate(0) translate(310.5 405)">
<title>controllers_diagram</title>
<polygon fill="white" stroke="none" points="-310.5,344 -310.5,-405 458,-405 458,344 -310.5,344"/>
<!-- _diagram_info -->
<g id="node1" class="node"><title>_diagram_info</title>
<text text-anchor="start" x="-247" y="-318.6" font-family="Times,serif" font-size="13.00">Controllers diagram</text>
<text text-anchor="start" x="-247" y="-304.6" font-family="Times,serif" font-size="13.00">Date: Jun 25 2020 &#45; 22:00</text>
<text text-anchor="start" x="-247" y="-290.6" font-family="Times,serif" font-size="13.00">Migration version: 20200526224728</text>
<text text-anchor="start" x="-247" y="-276.6" font-family="Times,serif" font-size="13.00">Generated by RailRoady 1.5.3</text>
<text text-anchor="start" x="-247" y="-262.6" font-family="Times,serif" font-size="13.00">http://railroady.prestonlee.com</text>
</g>
<!-- OperatorsController -->
<g id="node2" class="node"><title>OperatorsController</title>
<path fill="white" stroke="black" d="M-226.5,-0.5C-226.5,-0.5 -125.5,-0.5 -125.5,-0.5 -119.5,-0.5 -113.5,-6.5 -113.5,-12.5 -113.5,-12.5 -113.5,-127.5 -113.5,-127.5 -113.5,-133.5 -119.5,-139.5 -125.5,-139.5 -125.5,-139.5 -226.5,-139.5 -226.5,-139.5 -232.5,-139.5 -238.5,-133.5 -238.5,-127.5 -238.5,-127.5 -238.5,-12.5 -238.5,-12.5 -238.5,-6.5 -232.5,-0.5 -226.5,-0.5"/>
<text text-anchor="middle" x="-176" y="-124.3" font-family="Times,serif" font-size="14.00">OperatorsController</text>
<polyline fill="white" stroke="black" points="-238.5,-116.5 -113.5,-116.5 "/>
<text text-anchor="start" x="-230.5" y="-101.3" font-family="Times,serif" font-size="14.00">destroy</text>
<text text-anchor="start" x="-230.5" y="-86.3" font-family="Times,serif" font-size="14.00">oadmin_op_index</text>
<text text-anchor="start" x="-230.5" y="-71.3" font-family="Times,serif" font-size="14.00">oembus_op_index</text>
<text text-anchor="start" x="-230.5" y="-56.3" font-family="Times,serif" font-size="14.00">update</text>
<polyline fill="white" stroke="black" points="-238.5,-48.5 -113.5,-48.5 "/>
<polyline fill="white" stroke="black" points="-238.5,-24.5 -113.5,-24.5 "/>
</g>
<!-- OperatorAdminsController -->
<g id="node3" class="node"><title>OperatorAdminsController</title>
<path fill="white" stroke="black" d="M284,85C284,85 424,85 424,85 430,85 436,79 436,73 436,73 436,-27 436,-27 436,-33 430,-39 424,-39 424,-39 284,-39 284,-39 278,-39 272,-33 272,-27 272,-27 272,73 272,73 272,79 278,85 284,85"/>
<text text-anchor="middle" x="354" y="-23.8" font-family="Times,serif" font-size="14.00">OperatorAdminsController</text>
<polyline fill="white" stroke="black" points="272,-16 436,-16 "/>
<text text-anchor="start" x="280" y="-0.8" font-family="Times,serif" font-size="14.00">destroy</text>
<text text-anchor="start" x="280" y="14.2" font-family="Times,serif" font-size="14.00">oembus_oadmin_index</text>
<text text-anchor="start" x="280" y="29.2" font-family="Times,serif" font-size="14.00">update</text>
<polyline fill="white" stroke="black" points="272,37 436,37 "/>
<polyline fill="white" stroke="black" points="272,61 436,61 "/>
</g>
<!-- ApplicationController -->
<g id="node4" class="node"><title>ApplicationController</title>
<path fill="white" stroke="black" d="M-72.5,152C-72.5,152 46.5,152 46.5,152 52.5,152 58.5,146 58.5,140 58.5,140 58.5,-140 58.5,-140 58.5,-146 52.5,-152 46.5,-152 46.5,-152 -72.5,-152 -72.5,-152 -78.5,-152 -84.5,-146 -84.5,-140 -84.5,-140 -84.5,140 -84.5,140 -84.5,146 -78.5,152 -72.5,152"/>
<text text-anchor="middle" x="-13" y="-136.8" font-family="Times,serif" font-size="14.00">ApplicationController</text>
<polyline fill="white" stroke="black" points="-84.5,-129 58.5,-129 "/>
<polyline fill="white" stroke="black" points="-84.5,-105 58.5,-105 "/>
<polyline fill="white" stroke="black" points="-84.5,-81 58.5,-81 "/>
<text text-anchor="start" x="-76.5" y="-65.8" font-family="Times,serif" font-size="14.00">current_user</text>
<text text-anchor="start" x="-76.5" y="-50.8" font-family="Times,serif" font-size="14.00">cuser_is?</text>
<text text-anchor="start" x="-76.5" y="-35.8" font-family="Times,serif" font-size="14.00">cuser_is_in?</text>
<text text-anchor="start" x="-76.5" y="-20.8" font-family="Times,serif" font-size="14.00">delete_client_admins</text>
<text text-anchor="start" x="-76.5" y="-5.8" font-family="Times,serif" font-size="14.00">delete_oem</text>
<text text-anchor="start" x="-76.5" y="9.2" font-family="Times,serif" font-size="14.00">delete_oem_business</text>
<text text-anchor="start" x="-76.5" y="24.2" font-family="Times,serif" font-size="14.00">delete_oem_businesses</text>
<text text-anchor="start" x="-76.5" y="39.2" font-family="Times,serif" font-size="14.00">delete_procedure</text>
<text text-anchor="start" x="-76.5" y="54.2" font-family="Times,serif" font-size="14.00">delete_procedures</text>
<text text-anchor="start" x="-76.5" y="69.2" font-family="Times,serif" font-size="14.00">delete_saved_steps</text>
<text text-anchor="start" x="-76.5" y="84.2" font-family="Times,serif" font-size="14.00">is_author?</text>
<text text-anchor="start" x="-76.5" y="99.2" font-family="Times,serif" font-size="14.00">is_client_admin?</text>
<text text-anchor="start" x="-76.5" y="114.2" font-family="Times,serif" font-size="14.00">is_operator?</text>
<text text-anchor="start" x="-76.5" y="129.2" font-family="Times,serif" font-size="14.00">is_p_admin?</text>
<text text-anchor="start" x="-76.5" y="144.2" font-family="Times,serif" font-size="14.00">require_login</text>
</g>
<!-- ShellController -->
<g id="node5" class="node"><title>ShellController</title>
<path fill="white" stroke="black" d="M352,-188C352,-188 428,-188 428,-188 434,-188 440,-194 440,-200 440,-200 440,-270 440,-270 440,-276 434,-282 428,-282 428,-282 352,-282 352,-282 346,-282 340,-276 340,-270 340,-270 340,-200 340,-200 340,-194 346,-188 352,-188"/>
<text text-anchor="middle" x="390" y="-266.8" font-family="Times,serif" font-size="14.00">ShellController</text>
<polyline fill="white" stroke="black" points="340,-259 440,-259 "/>
<text text-anchor="start" x="348" y="-243.8" font-family="Times,serif" font-size="14.00">index</text>
<polyline fill="white" stroke="black" points="340,-236 440,-236 "/>
<polyline fill="white" stroke="black" points="340,-212 440,-212 "/>
</g>
<!-- OemsController -->
<g id="node6" class="node"><title>OemsController</title>
<path fill="white" stroke="black" d="M-243,169C-243,169 -137,169 -137,169 -131,169 -125,163 -125,157 -125,157 -125,43 -125,43 -125,37 -131,31 -137,31 -137,31 -243,31 -243,31 -249,31 -255,37 -255,43 -255,43 -255,157 -255,157 -255,163 -249,169 -243,169"/>
<text text-anchor="middle" x="-190" y="46.2" font-family="Times,serif" font-size="14.00">OemsController</text>
<polyline fill="white" stroke="black" points="-255,54 -125,54 "/>
<text text-anchor="start" x="-247" y="69.2" font-family="Times,serif" font-size="14.00">create</text>
<text text-anchor="start" x="-247" y="84.2" font-family="Times,serif" font-size="14.00">destroy</text>
<text text-anchor="start" x="-247" y="99.2" font-family="Times,serif" font-size="14.00">index</text>
<text text-anchor="start" x="-247" y="114.2" font-family="Times,serif" font-size="14.00">update</text>
<polyline fill="white" stroke="black" points="-255,122 -125,122 "/>
<polyline fill="white" stroke="black" points="-255,146 -125,146 "/>
<text text-anchor="start" x="-247" y="161.2" font-family="Times,serif" font-size="14.00">update_oem_params</text>
</g>
<!-- OemBusinessesController -->
<g id="node7" class="node"><title>OemBusinessesController</title>
<path fill="white" stroke="black" d="M12,-187.5C12,-187.5 146,-187.5 146,-187.5 152,-187.5 158,-193.5 158,-199.5 158,-199.5 158,-314.5 158,-314.5 158,-320.5 152,-326.5 146,-326.5 146,-326.5 12,-326.5 12,-326.5 6,-326.5 0,-320.5 0,-314.5 0,-314.5 0,-199.5 0,-199.5 0,-193.5 6,-187.5 12,-187.5"/>
<text text-anchor="middle" x="79" y="-311.3" font-family="Times,serif" font-size="14.00">OemBusinessesController</text>
<polyline fill="white" stroke="black" points="0,-303.5 158,-303.5 "/>
<text text-anchor="start" x="8" y="-288.3" font-family="Times,serif" font-size="14.00">create</text>
<text text-anchor="start" x="8" y="-273.3" font-family="Times,serif" font-size="14.00">destroy</text>
<text text-anchor="start" x="8" y="-258.3" font-family="Times,serif" font-size="14.00">oem_oembus_index</text>
<text text-anchor="start" x="8" y="-243.3" font-family="Times,serif" font-size="14.00">show</text>
<polyline fill="white" stroke="black" points="0,-235.5 158,-235.5 "/>
<polyline fill="white" stroke="black" points="0,-211.5 158,-211.5 "/>
</g>
<!-- UsersController -->
<g id="node8" class="node"><title>UsersController</title>
<path fill="white" stroke="black" d="M318.5,305.5C318.5,305.5 397.5,305.5 397.5,305.5 403.5,305.5 409.5,299.5 409.5,293.5 409.5,293.5 409.5,134.5 409.5,134.5 409.5,128.5 403.5,122.5 397.5,122.5 397.5,122.5 318.5,122.5 318.5,122.5 312.5,122.5 306.5,128.5 306.5,134.5 306.5,134.5 306.5,293.5 306.5,293.5 306.5,299.5 312.5,305.5 318.5,305.5"/>
<text text-anchor="middle" x="358" y="137.7" font-family="Times,serif" font-size="14.00">UsersController</text>
<polyline fill="white" stroke="black" points="306.5,145.5 409.5,145.5 "/>
<text text-anchor="start" x="314.5" y="160.7" font-family="Times,serif" font-size="14.00">create</text>
<text text-anchor="start" x="314.5" y="175.7" font-family="Times,serif" font-size="14.00">destroy</text>
<text text-anchor="start" x="314.5" y="190.7" font-family="Times,serif" font-size="14.00">refresh</text>
<text text-anchor="start" x="314.5" y="205.7" font-family="Times,serif" font-size="14.00">show</text>
<text text-anchor="start" x="314.5" y="220.7" font-family="Times,serif" font-size="14.00">update</text>
<text text-anchor="start" x="314.5" y="235.7" font-family="Times,serif" font-size="14.00">users_index</text>
<polyline fill="white" stroke="black" points="306.5,243.5 409.5,243.5 "/>
<polyline fill="white" stroke="black" points="306.5,267.5 409.5,267.5 "/>
<text text-anchor="start" x="314.5" y="282.7" font-family="Times,serif" font-size="14.00">deactivated?</text>
<text text-anchor="start" x="314.5" y="297.7" font-family="Times,serif" font-size="14.00">user_params</text>
</g>
<!-- StepsController -->
<g id="node9" class="node"><title>StepsController</title>
<path fill="white" stroke="black" d="M199,-187.5C199,-187.5 291,-187.5 291,-187.5 297,-187.5 303,-193.5 303,-199.5 303,-199.5 303,-388.5 303,-388.5 303,-394.5 297,-400.5 291,-400.5 291,-400.5 199,-400.5 199,-400.5 193,-400.5 187,-394.5 187,-388.5 187,-388.5 187,-199.5 187,-199.5 187,-193.5 193,-187.5 199,-187.5"/>
<text text-anchor="middle" x="245" y="-385.3" font-family="Times,serif" font-size="14.00">StepsController</text>
<polyline fill="white" stroke="black" points="187,-377.5 303,-377.5 "/>
<text text-anchor="start" x="195" y="-362.3" font-family="Times,serif" font-size="14.00">add_visuals</text>
<text text-anchor="start" x="195" y="-347.3" font-family="Times,serif" font-size="14.00">create</text>
<text text-anchor="start" x="195" y="-332.3" font-family="Times,serif" font-size="14.00">csv_steps</text>
<text text-anchor="start" x="195" y="-317.3" font-family="Times,serif" font-size="14.00">destroy</text>
<text text-anchor="start" x="195" y="-302.3" font-family="Times,serif" font-size="14.00">save_step</text>
<text text-anchor="start" x="195" y="-287.3" font-family="Times,serif" font-size="14.00">update</text>
<polyline fill="white" stroke="black" points="187,-279.5 303,-279.5 "/>
<polyline fill="white" stroke="black" points="187,-255.5 303,-255.5 "/>
<text text-anchor="start" x="195" y="-240.3" font-family="Times,serif" font-size="14.00">action_params</text>
<text text-anchor="start" x="195" y="-225.3" font-family="Times,serif" font-size="14.00">put_step_params</text>
<text text-anchor="start" x="195" y="-210.3" font-family="Times,serif" font-size="14.00">save_step_params</text>
<text text-anchor="start" x="195" y="-195.3" font-family="Times,serif" font-size="14.00">step_params</text>
</g>
<!-- ProceduresController -->
<g id="node10" class="node"><title>ProceduresController</title>
<path fill="white" stroke="black" d="M97.5,84.5C97.5,84.5 228.5,84.5 228.5,84.5 234.5,84.5 240.5,78.5 240.5,72.5 240.5,72.5 240.5,-146.5 240.5,-146.5 240.5,-152.5 234.5,-158.5 228.5,-158.5 228.5,-158.5 97.5,-158.5 97.5,-158.5 91.5,-158.5 85.5,-152.5 85.5,-146.5 85.5,-146.5 85.5,72.5 85.5,72.5 85.5,78.5 91.5,84.5 97.5,84.5"/>
<text text-anchor="middle" x="163" y="-143.3" font-family="Times,serif" font-size="14.00">ProceduresController</text>
<polyline fill="white" stroke="black" points="85.5,-135.5 240.5,-135.5 "/>
<text text-anchor="start" x="93.5" y="-120.3" font-family="Times,serif" font-size="14.00">copy</text>
<text text-anchor="start" x="93.5" y="-105.3" font-family="Times,serif" font-size="14.00">create</text>
<text text-anchor="start" x="93.5" y="-90.3" font-family="Times,serif" font-size="14.00">destroy</text>
<text text-anchor="start" x="93.5" y="-75.3" font-family="Times,serif" font-size="14.00">oembusiness_prod_index</text>
<text text-anchor="start" x="93.5" y="-60.3" font-family="Times,serif" font-size="14.00">operator_prod_index</text>
<text text-anchor="start" x="93.5" y="-45.3" font-family="Times,serif" font-size="14.00">reorder</text>
<text text-anchor="start" x="93.5" y="-30.3" font-family="Times,serif" font-size="14.00">show</text>
<text text-anchor="start" x="93.5" y="-15.3" font-family="Times,serif" font-size="14.00">update</text>
<text text-anchor="start" x="93.5" y="-0.3" font-family="Times,serif" font-size="14.00">update_categories</text>
<text text-anchor="start" x="93.5" y="14.7" font-family="Times,serif" font-size="14.00">used</text>
<polyline fill="white" stroke="black" points="85.5,22.5 240.5,22.5 "/>
<polyline fill="white" stroke="black" points="85.5,46.5 240.5,46.5 "/>
<text text-anchor="start" x="93.5" y="61.7" font-family="Times,serif" font-size="14.00">procedure_params</text>
<text text-anchor="start" x="93.5" y="76.7" font-family="Times,serif" font-size="14.00">step_params</text>
</g>
<!-- Users::PasswordsController -->
<g id="node11" class="node"><title>Users::PasswordsController</title>
<path fill="white" stroke="black" d="M-294.5,305C-294.5,305 -151.5,305 -151.5,305 -145.5,305 -139.5,299 -139.5,293 -139.5,293 -139.5,223 -139.5,223 -139.5,217 -145.5,211 -151.5,211 -151.5,211 -294.5,211 -294.5,211 -300.5,211 -306.5,217 -306.5,223 -306.5,223 -306.5,293 -306.5,293 -306.5,299 -300.5,305 -294.5,305"/>
<text text-anchor="middle" x="-223" y="226.2" font-family="Times,serif" font-size="14.00">Users::PasswordsController</text>
<polyline fill="white" stroke="black" points="-306.5,234 -139.5,234 "/>
<text text-anchor="start" x="-298.5" y="249.2" font-family="Times,serif" font-size="14.00">edit</text>
<polyline fill="white" stroke="black" points="-306.5,257 -139.5,257 "/>
<polyline fill="white" stroke="black" points="-306.5,281 -139.5,281 "/>
</g>
<!-- Users::RegistrationsController -->
<g id="node12" class="node"><title>Users::RegistrationsController</title>
<path fill="white" stroke="black" d="M284,-68.5C284,-68.5 442,-68.5 442,-68.5 448,-68.5 454,-74.5 454,-80.5 454,-80.5 454,-149.5 454,-149.5 454,-155.5 448,-161.5 442,-161.5 442,-161.5 284,-161.5 284,-161.5 278,-161.5 272,-155.5 272,-149.5 272,-149.5 272,-80.5 272,-80.5 272,-74.5 278,-68.5 284,-68.5"/>
<text text-anchor="middle" x="363" y="-146.3" font-family="Times,serif" font-size="14.00">Users::RegistrationsController</text>
<polyline fill="white" stroke="black" points="272,-138.5 454,-138.5 "/>
<text text-anchor="start" x="280" y="-123.3" font-family="Times,serif" font-size="14.00">create</text>
<polyline fill="white" stroke="black" points="272,-115.5 454,-115.5 "/>
<text text-anchor="start" x="280" y="-100.3" font-family="Times,serif" font-size="14.00">configure_sign_up_params</text>
<polyline fill="white" stroke="black" points="272,-92.5 454,-92.5 "/>
</g>
<!-- Users::ConfirmationsController -->
<g id="node13" class="node"><title>Users::ConfirmationsController</title>
<path fill="white" stroke="black" d="M97.5,220.5C97.5,220.5 262.5,220.5 262.5,220.5 268.5,220.5 274.5,214.5 274.5,208.5 274.5,208.5 274.5,123.5 274.5,123.5 274.5,117.5 268.5,111.5 262.5,111.5 262.5,111.5 97.5,111.5 97.5,111.5 91.5,111.5 85.5,117.5 85.5,123.5 85.5,123.5 85.5,208.5 85.5,208.5 85.5,214.5 91.5,220.5 97.5,220.5"/>
<text text-anchor="middle" x="180" y="126.7" font-family="Times,serif" font-size="14.00">Users::ConfirmationsController</text>
<polyline fill="white" stroke="black" points="85.5,134.5 274.5,134.5 "/>
<text text-anchor="start" x="93.5" y="149.7" font-family="Times,serif" font-size="14.00">confirmation_password</text>
<text text-anchor="start" x="93.5" y="164.7" font-family="Times,serif" font-size="14.00">show</text>
<polyline fill="white" stroke="black" points="85.5,172.5 274.5,172.5 "/>
<polyline fill="white" stroke="black" points="85.5,196.5 274.5,196.5 "/>
</g>
<!-- SessionsController -->
<g id="node14" class="node"><title>SessionsController</title>
<path fill="white" stroke="black" d="M80.5,339.5C80.5,339.5 175.5,339.5 175.5,339.5 181.5,339.5 187.5,333.5 187.5,327.5 187.5,327.5 187.5,258.5 187.5,258.5 187.5,252.5 181.5,246.5 175.5,246.5 175.5,246.5 80.5,246.5 80.5,246.5 74.5,246.5 68.5,252.5 68.5,258.5 68.5,258.5 68.5,327.5 68.5,327.5 68.5,333.5 74.5,339.5 80.5,339.5"/>
<text text-anchor="middle" x="128" y="261.7" font-family="Times,serif" font-size="14.00">SessionsController</text>
<polyline fill="white" stroke="black" points="68.5,269.5 187.5,269.5 "/>
<text text-anchor="start" x="76.5" y="284.7" font-family="Times,serif" font-size="14.00">create</text>
<polyline fill="white" stroke="black" points="68.5,292.5 187.5,292.5 "/>
<polyline fill="white" stroke="black" points="68.5,316.5 187.5,316.5 "/>
<text text-anchor="start" x="76.5" y="331.7" font-family="Times,serif" font-size="14.00">deactivated?</text>
</g>
<!-- DevicesController -->
<g id="node15" class="node"><title>DevicesController</title>
<path fill="white" stroke="black" d="M-73,339.5C-73,339.5 19,339.5 19,339.5 25,339.5 31,333.5 31,327.5 31,327.5 31,198.5 31,198.5 31,192.5 25,186.5 19,186.5 19,186.5 -73,186.5 -73,186.5 -79,186.5 -85,192.5 -85,198.5 -85,198.5 -85,327.5 -85,327.5 -85,333.5 -79,339.5 -73,339.5"/>
<text text-anchor="middle" x="-27" y="201.7" font-family="Times,serif" font-size="14.00">DevicesController</text>
<polyline fill="white" stroke="black" points="-85,209.5 31,209.5 "/>
<text text-anchor="start" x="-77" y="224.7" font-family="Times,serif" font-size="14.00">create</text>
<text text-anchor="start" x="-77" y="239.7" font-family="Times,serif" font-size="14.00">destroy</text>
<text text-anchor="start" x="-77" y="254.7" font-family="Times,serif" font-size="14.00">devices_index</text>
<text text-anchor="start" x="-77" y="269.7" font-family="Times,serif" font-size="14.00">update</text>
<polyline fill="white" stroke="black" points="-85,277.5 31,277.5 "/>
<polyline fill="white" stroke="black" points="-85,301.5 31,301.5 "/>
<text text-anchor="start" x="-77" y="316.7" font-family="Times,serif" font-size="14.00">action_params</text>
<text text-anchor="start" x="-77" y="331.7" font-family="Times,serif" font-size="14.00">device_params</text>
</g>
</g>
</svg>
