<?xml version="1.0" encoding="UTF-8" standalone="no"?>
<!DOCTYPE svg PUBLIC "-//W3C//DTD SVG 1.1//EN"
 "http://www.w3.org/Graphics/SVG/1.1/DTD/svg11.dtd">
<!-- Generated by graphviz version 2.40.1 (20161225.0304)
 -->
<!-- Title: models_diagram Pages: 1 -->
<svg width="576pt" height="373pt"
 viewBox="0.00 0.00 576.12 373.00" xmlns="http://www.w3.org/2000/svg" xmlns:xlink="http://www.w3.org/1999/xlink">
<g id="graph0" class="graph" transform="scale(1 1) rotate(0) translate(4 369)">
<title>models_diagram</title>
<polygon fill="transparent" stroke="transparent" points="-4,4 -4,-369 572.1175,-369 572.1175,4 -4,4"/>
<!-- _diagram_info -->
<g id="node1" class="node">
<title>_diagram_info</title>
<text text-anchor="start" x="123.034" y="-350.6" font-family="Times,serif" font-size="13.00" fill="#000000">Models diagram</text>
<text text-anchor="start" x="123.034" y="-337.6" font-family="Times,serif" font-size="13.00" fill="#000000">Date: Aug 05 2019 &#45; 21:53</text>
<text text-anchor="start" x="123.034" y="-324.6" font-family="Times,serif" font-size="13.00" fill="#000000">Migration version: 20190722230157</text>
<text text-anchor="start" x="123.034" y="-311.6" font-family="Times,serif" font-size="13.00" fill="#000000">Generated by RailRoady 1.5.3</text>
<text text-anchor="start" x="123.034" y="-298.6" font-family="Times,serif" font-size="13.00" fill="#000000">http://railroady.prestonlee.com</text>
</g>
<!-- OemBusiness -->
<g id="node2" class="node">
<title>OemBusiness</title>
<ellipse fill="none" stroke="#000000" cx="367.7218" cy="-237" rx="58.9928" ry="18"/>
<text text-anchor="middle" x="367.7218" y="-232.8" font-family="Times,serif" font-size="14.00" fill="#000000">OemBusiness</text>
</g>
<!-- OperatorAdmin -->
<g id="node3" class="node">
<title>OperatorAdmin</title>
<ellipse fill="none" stroke="#000000" cx="241.7218" cy="-164" rx="66.1994" ry="18"/>
<text text-anchor="middle" x="241.7218" y="-159.8" font-family="Times,serif" font-size="14.00" fill="#000000">OperatorAdmin</text>
</g>
<!-- OemBusiness&#45;&gt;OperatorAdmin -->
<g id="edge2" class="edge">
<title>OemBusiness&#45;&gt;OperatorAdmin</title>
<path fill="none" stroke="#3a7119" d="M333.0212,-216.8957C316.3463,-207.2348 296.3325,-195.6396 279.2983,-185.7705"/>
<ellipse fill="none" stroke="#3a7119" cx="336.6095" cy="-218.9746" rx="4" ry="4"/>
<polygon fill="#3a7119" stroke="#3a7119" points="278.8342,-185.5017 272.4374,-176.5949 274.5079,-182.9952 270.1815,-180.4886 270.1815,-180.4886 270.1815,-180.4886 274.5079,-182.9952 267.9256,-184.3823 278.8342,-185.5017 278.8342,-185.5017"/>
</g>
<!-- Operator -->
<g id="node5" class="node">
<title>Operator</title>
<ellipse fill="none" stroke="#000000" cx="367.7218" cy="-164" rx="41.5679" ry="18"/>
<text text-anchor="middle" x="367.7218" y="-159.8" font-family="Times,serif" font-size="14.00" fill="#000000">Operator</text>
</g>
<!-- OemBusiness&#45;&gt;Operator -->
<g id="edge3" class="edge">
<title>OemBusiness&#45;&gt;Operator</title>
<path fill="none" stroke="#fbec59" d="M367.7218,-210.9079C367.7218,-204.9427 367.7218,-198.5729 367.7218,-192.512"/>
<ellipse fill="none" stroke="#fbec59" cx="367.7218" cy="-214.9551" rx="4" ry="4"/>
<polygon fill="#fbec59" stroke="#fbec59" points="367.7219,-192.0904 372.2218,-182.0903 367.7218,-187.0904 367.7218,-182.0904 367.7218,-182.0904 367.7218,-182.0904 367.7218,-187.0904 363.2218,-182.0904 367.7219,-192.0904 367.7219,-192.0904"/>
</g>
<!-- Procedure -->
<g id="node7" class="node">
<title>Procedure</title>
<ellipse fill="none" stroke="#000000" cx="412.7218" cy="-91" rx="45.9114" ry="18"/>
<text text-anchor="middle" x="412.7218" y="-86.8" font-family="Times,serif" font-size="14.00" fill="#000000">Procedure</text>
</g>
<!-- OemBusiness&#45;&gt;Procedure -->
<g id="edge1" class="edge">
<title>OemBusiness&#45;&gt;Procedure</title>
<path fill="none" stroke="#bde075" d="M395.6943,-214.5853C404.8395,-205.5461 413.8845,-194.3309 418.7218,-182 426.5886,-161.9464 424.3988,-137.505 420.6199,-119.004"/>
<ellipse fill="none" stroke="#bde075" cx="392.6294" cy="-217.463" rx="4" ry="4"/>
<polygon fill="#bde075" stroke="#bde075" points="420.5921,-118.8833 422.7281,-108.1274 419.4677,-114.0113 418.3433,-109.1394 418.3433,-109.1394 418.3433,-109.1394 419.4677,-114.0113 413.9586,-110.1513 420.5921,-118.8833 420.5921,-118.8833"/>
</g>
<!-- User -->
<g id="node11" class="node">
<title>User</title>
<ellipse fill="none" stroke="#000000" cx="177.7218" cy="-91" rx="27" ry="18"/>
<text text-anchor="middle" x="177.7218" y="-86.8" font-family="Times,serif" font-size="14.00" fill="#000000">User</text>
</g>
<!-- OperatorAdmin&#45;&gt;User -->
<g id="edge4" class="edge">
<title>OperatorAdmin&#45;&gt;User</title>
<path fill="none" stroke="#b7d452" d="M220.8244,-140.1639C213.2341,-131.5063 204.6926,-121.7636 197.2273,-113.2485"/>
<ellipse fill="none" stroke="#b7d452" cx="223.5922" cy="-143.321" rx="4" ry="4"/>
<ellipse fill="#b7d452" stroke="#b7d452" cx="194.3988" cy="-110.0223" rx="4" ry="4"/>
</g>
<!-- Step -->
<g id="node4" class="node">
<title>Step</title>
<ellipse fill="none" stroke="#000000" cx="476.7218" cy="-18" rx="27" ry="18"/>
<text text-anchor="middle" x="476.7218" y="-13.8" font-family="Times,serif" font-size="14.00" fill="#000000">Step</text>
</g>
<!-- Operation -->
<g id="node6" class="node">
<title>Operation</title>
<ellipse fill="none" stroke="#000000" cx="375.7218" cy="-18" rx="45.4355" ry="18"/>
<text text-anchor="middle" x="375.7218" y="-13.8" font-family="Times,serif" font-size="14.00" fill="#000000">Operation</text>
</g>
<!-- Operator&#45;&gt;Operation -->
<g id="edge6" class="edge">
<title>Operator&#45;&gt;Operation</title>
<path fill="none" stroke="#dba87c" d="M361.1646,-137.9232C357.4781,-119.6801 354.2488,-94.7773 357.7218,-73 359.1774,-63.8721 361.9116,-54.2016 364.8172,-45.5574"/>
<ellipse fill="none" stroke="#dba87c" cx="362.0227" cy="-141.8918" rx="4" ry="4"/>
<polygon fill="#dba87c" stroke="#dba87c" points="364.8762,-45.3923 372.4784,-37.4893 366.5584,-40.6838 368.2407,-35.9753 368.2407,-35.9753 368.2407,-35.9753 366.5584,-40.6838 364.0031,-34.4612 364.8762,-45.3923 364.8762,-45.3923"/>
</g>
<!-- Operator&#45;&gt;Procedure -->
<g id="edge7" class="edge">
<title>Operator&#45;&gt;Procedure</title>
<path fill="none" stroke="#495001" d="M383.8826,-137.7835C388.0045,-131.0969 392.4354,-123.9091 396.5574,-117.2222"/>
<polygon fill="#495001" stroke="#495001" points="383.8625,-137.8161 374.7844,-143.9673 381.2388,-142.0724 378.615,-146.3287 378.615,-146.3287 378.615,-146.3287 381.2388,-142.0724 382.4457,-148.6901 383.8625,-137.8161 383.8625,-137.8161"/>
<polygon fill="#495001" stroke="#495001" points="396.6813,-117.0211 405.7595,-110.8699 399.3051,-112.7648 401.9288,-108.5085 401.9288,-108.5085 401.9288,-108.5085 399.3051,-112.7648 398.0982,-106.1471 396.6813,-117.0211 396.6813,-117.0211"/>
</g>
<!-- Operator&#45;&gt;User -->
<g id="edge5" class="edge">
<title>Operator&#45;&gt;User</title>
<path fill="none" stroke="#441930" d="M328.4722,-148.9199C293.0056,-135.2933 241.4956,-115.5026 208.8097,-102.9443"/>
<ellipse fill="none" stroke="#441930" cx="332.6132" cy="-150.5109" rx="4" ry="4"/>
<ellipse fill="#441930" stroke="#441930" cx="205.0634" cy="-101.505" rx="4" ry="4"/>
</g>
<!-- Procedure&#45;&gt;Step -->
<g id="edge8" class="edge">
<title>Procedure&#45;&gt;Step</title>
<path fill="none" stroke="#9b943d" d="M433.377,-67.4401C440.719,-59.0656 448.9763,-49.6472 456.2988,-41.295"/>
<ellipse fill="none" stroke="#9b943d" cx="430.5258" cy="-70.6923" rx="4" ry="4"/>
<polygon fill="#9b943d" stroke="#9b943d" points="456.3802,-41.2021 466.3563,-36.6493 459.6763,-37.4424 462.9725,-33.6827 462.9725,-33.6827 462.9725,-33.6827 459.6763,-37.4424 459.5888,-30.7162 456.3802,-41.2021 456.3802,-41.2021"/>
</g>
<!-- Procedure&#45;&gt;Operation -->
<g id="edge9" class="edge">
<title>Procedure&#45;&gt;Operation</title>
<path fill="none" stroke="#e38bb9" d="M400.0634,-66.0253C396.5966,-59.1854 392.8248,-51.7439 389.3084,-44.8061"/>
<ellipse fill="none" stroke="#e38bb9" cx="401.9567" cy="-69.7609" rx="4" ry="4"/>
<polygon fill="#e38bb9" stroke="#e38bb9" points="389.2452,-44.6813 388.7381,-33.7271 386.9847,-40.2214 384.7242,-35.7615 384.7242,-35.7615 384.7242,-35.7615 386.9847,-40.2214 380.7103,-37.796 389.2452,-44.6813 389.2452,-44.6813"/>
</g>
<!-- ParlatyAdmin -->
<g id="node8" class="node">
<title>ParlatyAdmin</title>
<ellipse fill="none" stroke="#000000" cx="59.7218" cy="-164" rx="59.9444" ry="18"/>
<text text-anchor="middle" x="59.7218" y="-159.8" font-family="Times,serif" font-size="14.00" fill="#000000">ParlatyAdmin</text>
</g>
<!-- ParlatyAdmin&#45;&gt;User -->
<g id="edge10" class="edge">
<title>ParlatyAdmin&#45;&gt;User</title>
<path fill="none" stroke="#90d231" d="M92.7789,-143.5494C111.0925,-132.2198 133.57,-118.3142 150.8017,-107.6539"/>
<ellipse fill="none" stroke="#90d231" cx="89.3115" cy="-145.6945" rx="4" ry="4"/>
<ellipse fill="#90d231" stroke="#90d231" cx="154.4364" cy="-105.4054" rx="4" ry="4"/>
</g>
<!-- Oem -->
<g id="node9" class="node">
<title>Oem</title>
<ellipse fill="none" stroke="#000000" cx="367.7218" cy="-328.5" rx="27.0958" ry="18"/>
<text text-anchor="middle" x="367.7218" y="-324.3" font-family="Times,serif" font-size="14.00" fill="#000000">Oem</text>
</g>
<!-- Oem&#45;&gt;OemBusiness -->
<g id="edge12" class="edge">
<title>Oem&#45;&gt;OemBusiness</title>
<path fill="none" stroke="#b57e1c" d="M367.7218,-302.0044C367.7218,-290.4617 367.7218,-276.9188 367.7218,-265.1908"/>
<ellipse fill="none" stroke="#b57e1c" cx="367.7218" cy="-306.4225" rx="4" ry="4"/>
<polygon fill="#b57e1c" stroke="#b57e1c" points="367.7219,-265.0399 372.2218,-255.0399 367.7218,-260.0399 367.7218,-255.0399 367.7218,-255.0399 367.7218,-255.0399 367.7218,-260.0399 363.2218,-255.0399 367.7219,-265.0399 367.7219,-265.0399"/>
</g>
<!-- Oem&#45;&gt;Step -->
<g id="edge13" class="edge">
<title>Oem&#45;&gt;Step</title>
<path fill="none" stroke="#b072b8" d="M388.114,-307.0346C393.3488,-301.9078 399.0953,-296.5939 404.7218,-292 438.7139,-264.2464 486.7218,-280.8831 486.7218,-237 486.7218,-237 486.7218,-237 486.7218,-91 486.7218,-76.0614 484.6408,-59.561 482.3774,-46.0323"/>
<ellipse fill="none" stroke="#b072b8" cx="385.0688" cy="-310.0829" rx="4" ry="4"/>
<polygon fill="#b072b8" stroke="#b072b8" points="482.3267,-45.749 484.9886,-35.1112 481.443,-40.8277 480.5594,-35.9064 480.5594,-35.9064 480.5594,-35.9064 481.443,-40.8277 476.1303,-36.7016 482.3267,-45.749 482.3267,-45.749"/>
<text text-anchor="middle" x="520.1598" y="-159.8" font-family="Times,serif" font-size="14.00" fill="#000000">saved_steps</text>
</g>
<!-- Oem&#45;&gt;User -->
<g id="edge11" class="edge">
<title>Oem&#45;&gt;User</title>
<path fill="none" stroke="#c64317" d="M347.9523,-306.989C342.857,-301.8634 337.247,-296.5615 331.7218,-292 263.7558,-235.8883 208.3093,-259.707 166.7218,-182 155.8807,-161.7433 160.7662,-135.3916 167.0879,-116.2624"/>
<ellipse fill="none" stroke="#c64317" cx="350.8751" cy="-310" rx="4" ry="4"/>
<ellipse fill="#c64317" stroke="#c64317" cx="168.4983" cy="-112.3123" rx="4" ry="4"/>
</g>
<!-- ApplicationRecord -->
<g id="node10" class="node">
<title>ApplicationRecord</title>
<ellipse fill="none" stroke="#000000" cx="490.7218" cy="-328.5" rx="77.2916" ry="18"/>
<text text-anchor="middle" x="490.7218" y="-324.3" font-family="Times,serif" font-size="14.00" fill="#000000">ApplicationRecord</text>
</g>
</g>
</svg>
