<?xml version="1.0" encoding="UTF-8" standalone="no"?>
<!DOCTYPE svg PUBLIC "-//W3C//DTD SVG 1.1//EN"
 "http://www.w3.org/Graphics/SVG/1.1/DTD/svg11.dtd">
<!-- Generated by graphviz version 2.40.1 (20161225.0304)
 -->
<!-- Title: models_diagram Pages: 1 -->
<svg width="719pt" height="899pt"
 viewBox="0.00 0.00 718.90 899.00" xmlns="http://www.w3.org/2000/svg" xmlns:xlink="http://www.w3.org/1999/xlink">
<g id="graph0" class="graph" transform="scale(1 1) rotate(0) translate(4 895)">
<title>models_diagram</title>
<polygon fill="transparent" stroke="transparent" points="-4,4 -4,-895 714.9011,-895 714.9011,4 -4,4"/>
<!-- _diagram_info -->
<g id="node1" class="node">
<title>_diagram_info</title>
<text text-anchor="start" x="187.8176" y="-869.6" font-family="Times,serif" font-size="13.00" fill="#000000">Models diagram</text>
<text text-anchor="start" x="187.8176" y="-856.6" font-family="Times,serif" font-size="13.00" fill="#000000">Date: Aug 05 2019 &#45; 21:53</text>
<text text-anchor="start" x="187.8176" y="-843.6" font-family="Times,serif" font-size="13.00" fill="#000000">Migration version: 20190722230157</text>
<text text-anchor="start" x="187.8176" y="-830.6" font-family="Times,serif" font-size="13.00" fill="#000000">Generated by RailRoady 1.5.3</text>
<text text-anchor="start" x="187.8176" y="-817.6" font-family="Times,serif" font-size="13.00" fill="#000000">http://railroady.prestonlee.com</text>
</g>
<!-- OemBusiness -->
<g id="node2" class="node">
<title>OemBusiness</title>
<path fill="none" stroke="#000000" d="M417,-666.5C417,-666.5 526.0107,-666.5 526.0107,-666.5 532.0107,-666.5 538.0107,-672.5 538.0107,-678.5 538.0107,-678.5 538.0107,-754.5 538.0107,-754.5 538.0107,-760.5 532.0107,-766.5 526.0107,-766.5 526.0107,-766.5 417,-766.5 417,-766.5 411,-766.5 405,-760.5 405,-754.5 405,-754.5 405,-678.5 405,-678.5 405,-672.5 411,-666.5 417,-666.5"/>
<text text-anchor="middle" x="471.5054" y="-751.3" font-family="Times,serif" font-size="14.00" fill="#000000">OemBusiness</text>
<polyline fill="none" stroke="#000000" points="405,-744.5 538.0107,-744.5 "/>
<text text-anchor="start" x="413" y="-729.3" font-family="Times,serif" font-size="14.00" fill="#000000">id :bigint(20)</text>
<text text-anchor="start" x="413" y="-715.3" font-family="Times,serif" font-size="14.00" fill="#000000">name :varchar(255)</text>
<text text-anchor="start" x="413" y="-701.3" font-family="Times,serif" font-size="14.00" fill="#000000">oem_id :bigint(20)</text>
<text text-anchor="start" x="413" y="-687.3" font-family="Times,serif" font-size="14.00" fill="#000000">created_at :datetime</text>
<text text-anchor="start" x="413" y="-673.3" font-family="Times,serif" font-size="14.00" fill="#000000">updated_at :datetime</text>
</g>
<!-- OperatorAdmin -->
<g id="node3" class="node">
<title>OperatorAdmin</title>
<path fill="none" stroke="#000000" d="M201.5933,-514.5C201.5933,-514.5 353.4175,-514.5 353.4175,-514.5 359.4175,-514.5 365.4175,-520.5 365.4175,-526.5 365.4175,-526.5 365.4175,-616.5 365.4175,-616.5 365.4175,-622.5 359.4175,-628.5 353.4175,-628.5 353.4175,-628.5 201.5933,-628.5 201.5933,-628.5 195.5933,-628.5 189.5933,-622.5 189.5933,-616.5 189.5933,-616.5 189.5933,-526.5 189.5933,-526.5 189.5933,-520.5 195.5933,-514.5 201.5933,-514.5"/>
<text text-anchor="middle" x="277.5054" y="-613.3" font-family="Times,serif" font-size="14.00" fill="#000000">OperatorAdmin</text>
<polyline fill="none" stroke="#000000" points="189.5933,-606.5 365.4175,-606.5 "/>
<text text-anchor="start" x="197.5933" y="-591.3" font-family="Times,serif" font-size="14.00" fill="#000000">id :bigint(20)</text>
<text text-anchor="start" x="197.5933" y="-577.3" font-family="Times,serif" font-size="14.00" fill="#000000">name :varchar(255)</text>
<text text-anchor="start" x="197.5933" y="-563.3" font-family="Times,serif" font-size="14.00" fill="#000000">deactivated :tinyint(1)</text>
<text text-anchor="start" x="197.5933" y="-549.3" font-family="Times,serif" font-size="14.00" fill="#000000">oem_business_id :bigint(20)</text>
<text text-anchor="start" x="197.5933" y="-535.3" font-family="Times,serif" font-size="14.00" fill="#000000">created_at :datetime</text>
<text text-anchor="start" x="197.5933" y="-521.3" font-family="Times,serif" font-size="14.00" fill="#000000">updated_at :datetime</text>
</g>
<!-- OemBusiness&#45;&gt;OperatorAdmin -->
<g id="edge2" class="edge">
<title>OemBusiness&#45;&gt;OperatorAdmin</title>
<path fill="none" stroke="#8e1779" d="M398.1724,-661.6893C386.4544,-652.931 374.2455,-643.8058 362.2883,-634.8687"/>
<ellipse fill="none" stroke="#8e1779" cx="401.5376" cy="-664.2045" rx="4" ry="4"/>
<polygon fill="#8e1779" stroke="#8e1779" points="362.0695,-634.7052 356.7537,-625.1139 358.0646,-631.7118 354.0596,-628.7184 354.0596,-628.7184 354.0596,-628.7184 358.0646,-631.7118 351.3656,-632.3229 362.0695,-634.7052 362.0695,-634.7052"/>
</g>
<!-- Operator -->
<g id="node5" class="node">
<title>Operator</title>
<path fill="none" stroke="#000000" d="M395.5933,-514.5C395.5933,-514.5 547.4175,-514.5 547.4175,-514.5 553.4175,-514.5 559.4175,-520.5 559.4175,-526.5 559.4175,-526.5 559.4175,-616.5 559.4175,-616.5 559.4175,-622.5 553.4175,-628.5 547.4175,-628.5 547.4175,-628.5 395.5933,-628.5 395.5933,-628.5 389.5933,-628.5 383.5933,-622.5 383.5933,-616.5 383.5933,-616.5 383.5933,-526.5 383.5933,-526.5 383.5933,-520.5 389.5933,-514.5 395.5933,-514.5"/>
<text text-anchor="middle" x="471.5054" y="-613.3" font-family="Times,serif" font-size="14.00" fill="#000000">Operator</text>
<polyline fill="none" stroke="#000000" points="383.5933,-606.5 559.4175,-606.5 "/>
<text text-anchor="start" x="391.5933" y="-591.3" font-family="Times,serif" font-size="14.00" fill="#000000">id :bigint(20)</text>
<text text-anchor="start" x="391.5933" y="-577.3" font-family="Times,serif" font-size="14.00" fill="#000000">name :varchar(255)</text>
<text text-anchor="start" x="391.5933" y="-563.3" font-family="Times,serif" font-size="14.00" fill="#000000">deactivated :tinyint(1)</text>
<text text-anchor="start" x="391.5933" y="-549.3" font-family="Times,serif" font-size="14.00" fill="#000000">oem_business_id :bigint(20)</text>
<text text-anchor="start" x="391.5933" y="-535.3" font-family="Times,serif" font-size="14.00" fill="#000000">created_at :datetime</text>
<text text-anchor="start" x="391.5933" y="-521.3" font-family="Times,serif" font-size="14.00" fill="#000000">updated_at :datetime</text>
</g>
<!-- OemBusiness&#45;&gt;Operator -->
<g id="edge3" class="edge">
<title>OemBusiness&#45;&gt;Operator</title>
<path fill="none" stroke="#2d0eb9" d="M471.5054,-658.1335C471.5054,-651.7598 471.5054,-645.2344 471.5054,-638.765"/>
<ellipse fill="none" stroke="#2d0eb9" cx="471.5054" cy="-662.193" rx="4" ry="4"/>
<polygon fill="#2d0eb9" stroke="#2d0eb9" points="471.5055,-638.6745 476.0054,-628.6744 471.5054,-633.6745 471.5054,-628.6745 471.5054,-628.6745 471.5054,-628.6745 471.5054,-633.6745 467.0054,-628.6745 471.5055,-638.6745 471.5055,-638.6745"/>
</g>
<!-- Procedure -->
<g id="node7" class="node">
<title>Procedure</title>
<path fill="none" stroke="#000000" d="M448.5933,-278.5C448.5933,-278.5 600.4175,-278.5 600.4175,-278.5 606.4175,-278.5 612.4175,-284.5 612.4175,-290.5 612.4175,-290.5 612.4175,-450.5 612.4175,-450.5 612.4175,-456.5 606.4175,-462.5 600.4175,-462.5 600.4175,-462.5 448.5933,-462.5 448.5933,-462.5 442.5933,-462.5 436.5933,-456.5 436.5933,-450.5 436.5933,-450.5 436.5933,-290.5 436.5933,-290.5 436.5933,-284.5 442.5933,-278.5 448.5933,-278.5"/>
<text text-anchor="middle" x="524.5054" y="-447.3" font-family="Times,serif" font-size="14.00" fill="#000000">Procedure</text>
<polyline fill="none" stroke="#000000" points="436.5933,-440.5 612.4175,-440.5 "/>
<text text-anchor="start" x="444.5933" y="-425.3" font-family="Times,serif" font-size="14.00" fill="#000000">updated_at :datetime</text>
<text text-anchor="start" x="444.5933" y="-411.3" font-family="Times,serif" font-size="14.00" fill="#000000">name :varchar(255)</text>
<text text-anchor="start" x="444.5933" y="-397.3" font-family="Times,serif" font-size="14.00" fill="#000000">version :float</text>
<text text-anchor="start" x="444.5933" y="-383.3" font-family="Times,serif" font-size="14.00" fill="#000000">description :text</text>
<text text-anchor="start" x="444.5933" y="-369.3" font-family="Times,serif" font-size="14.00" fill="#000000">category :varchar(255)</text>
<text text-anchor="start" x="444.5933" y="-355.3" font-family="Times,serif" font-size="14.00" fill="#000000">author :varchar(255)</text>
<text text-anchor="start" x="444.5933" y="-341.3" font-family="Times,serif" font-size="14.00" fill="#000000">language :varchar(255)</text>
<text text-anchor="start" x="444.5933" y="-327.3" font-family="Times,serif" font-size="14.00" fill="#000000">steps_order :text</text>
<text text-anchor="start" x="444.5933" y="-313.3" font-family="Times,serif" font-size="14.00" fill="#000000">oem_business_id :bigint(20)</text>
<text text-anchor="start" x="444.5933" y="-299.3" font-family="Times,serif" font-size="14.00" fill="#000000">created_at :datetime</text>
<text text-anchor="start" x="444.5933" y="-285.3" font-family="Times,serif" font-size="14.00" fill="#000000">id :bigint(20)</text>
</g>
<!-- OemBusiness&#45;&gt;Procedure -->
<g id="edge1" class="edge">
<title>OemBusiness&#45;&gt;Procedure</title>
<path fill="none" stroke="#aa4742" d="M543.74,-664.692C553.7984,-654.0909 562.6739,-642.1138 568.5054,-629 590.3119,-579.9614 582.7031,-521.2684 568.1466,-472.2124"/>
<ellipse fill="none" stroke="#aa4742" cx="540.8585" cy="-667.598" rx="4" ry="4"/>
<polygon fill="#aa4742" stroke="#aa4742" points="568.108,-472.0877 569.4478,-461.204 566.6287,-467.3116 565.1493,-462.5354 565.1493,-462.5354 565.1493,-462.5354 566.6287,-467.3116 560.8508,-463.8669 568.108,-472.0877 568.108,-472.0877"/>
</g>
<!-- User -->
<g id="node11" class="node">
<title>User</title>
<path fill="none" stroke="#000000" d="M118.4585,-264.5C118.4585,-264.5 314.5522,-264.5 314.5522,-264.5 320.5522,-264.5 326.5522,-270.5 326.5522,-276.5 326.5522,-276.5 326.5522,-464.5 326.5522,-464.5 326.5522,-470.5 320.5522,-476.5 314.5522,-476.5 314.5522,-476.5 118.4585,-476.5 118.4585,-476.5 112.4585,-476.5 106.4585,-470.5 106.4585,-464.5 106.4585,-464.5 106.4585,-276.5 106.4585,-276.5 106.4585,-270.5 112.4585,-264.5 118.4585,-264.5"/>
<text text-anchor="middle" x="216.5054" y="-461.3" font-family="Times,serif" font-size="14.00" fill="#000000">User</text>
<polyline fill="none" stroke="#000000" points="106.4585,-454.5 326.5522,-454.5 "/>
<text text-anchor="start" x="114.4585" y="-439.3" font-family="Times,serif" font-size="14.00" fill="#000000">roleable_id :bigint(20)</text>
<text text-anchor="start" x="114.4585" y="-425.3" font-family="Times,serif" font-size="14.00" fill="#000000">email :varchar(255)</text>
<text text-anchor="start" x="114.4585" y="-411.3" font-family="Times,serif" font-size="14.00" fill="#000000">encrypted_password :varchar(255)</text>
<text text-anchor="start" x="114.4585" y="-397.3" font-family="Times,serif" font-size="14.00" fill="#000000">reset_password_token :varchar(255)</text>
<text text-anchor="start" x="114.4585" y="-383.3" font-family="Times,serif" font-size="14.00" fill="#000000">reset_password_sent_at :datetime</text>
<text text-anchor="start" x="114.4585" y="-369.3" font-family="Times,serif" font-size="14.00" fill="#000000">confirmation_token :varchar(255)</text>
<text text-anchor="start" x="114.4585" y="-355.3" font-family="Times,serif" font-size="14.00" fill="#000000">confirmed_at :datetime</text>
<text text-anchor="start" x="114.4585" y="-341.3" font-family="Times,serif" font-size="14.00" fill="#000000">confirmation_sent_at :datetime</text>
<text text-anchor="start" x="114.4585" y="-327.3" font-family="Times,serif" font-size="14.00" fill="#000000">unconfirmed_email :varchar(255)</text>
<text text-anchor="start" x="114.4585" y="-313.3" font-family="Times,serif" font-size="14.00" fill="#000000">created_at :datetime</text>
<text text-anchor="start" x="114.4585" y="-299.3" font-family="Times,serif" font-size="14.00" fill="#000000">updated_at :datetime</text>
<text text-anchor="start" x="114.4585" y="-285.3" font-family="Times,serif" font-size="14.00" fill="#000000">roleable_type :varchar(255)</text>
<text text-anchor="start" x="114.4585" y="-271.3" font-family="Times,serif" font-size="14.00" fill="#000000">id :bigint(20)</text>
</g>
<!-- OperatorAdmin&#45;&gt;User -->
<g id="edge4" class="edge">
<title>OperatorAdmin&#45;&gt;User</title>
<path fill="none" stroke="#138bd4" d="M257.79,-506.5362C255.6601,-499.518 253.4496,-492.2344 251.2083,-484.849"/>
<ellipse fill="none" stroke="#138bd4" cx="259.0267" cy="-510.6115" rx="4" ry="4"/>
<ellipse fill="#138bd4" stroke="#138bd4" cx="249.9281" cy="-480.6306" rx="4" ry="4"/>
</g>
<!-- Step -->
<g id="node4" class="node">
<title>Step</title>
<path fill="none" stroke="#000000" d="M560.8862,-.5C560.8862,-.5 690.1245,-.5 690.1245,-.5 696.1245,-.5 702.1245,-6.5 702.1245,-12.5 702.1245,-12.5 702.1245,-214.5 702.1245,-214.5 702.1245,-220.5 696.1245,-226.5 690.1245,-226.5 690.1245,-226.5 560.8862,-226.5 560.8862,-226.5 554.8862,-226.5 548.8862,-220.5 548.8862,-214.5 548.8862,-214.5 548.8862,-12.5 548.8862,-12.5 548.8862,-6.5 554.8862,-.5 560.8862,-.5"/>
<text text-anchor="middle" x="625.5054" y="-211.3" font-family="Times,serif" font-size="14.00" fill="#000000">Step</text>
<polyline fill="none" stroke="#000000" points="548.8862,-204.5 702.1245,-204.5 "/>
<text text-anchor="start" x="556.8862" y="-189.3" font-family="Times,serif" font-size="14.00" fill="#000000">updated_at :datetime</text>
<text text-anchor="start" x="556.8862" y="-175.3" font-family="Times,serif" font-size="14.00" fill="#000000">title :varchar(255)</text>
<text text-anchor="start" x="556.8862" y="-161.3" font-family="Times,serif" font-size="14.00" fill="#000000">device :varchar(255)</text>
<text text-anchor="start" x="556.8862" y="-147.3" font-family="Times,serif" font-size="14.00" fill="#000000">location :varchar(255)</text>
<text text-anchor="start" x="556.8862" y="-133.3" font-family="Times,serif" font-size="14.00" fill="#000000">mode :varchar(255)</text>
<text text-anchor="start" x="556.8862" y="-119.3" font-family="Times,serif" font-size="14.00" fill="#000000">note :text</text>
<text text-anchor="start" x="556.8862" y="-105.3" font-family="Times,serif" font-size="14.00" fill="#000000">time :int(11)</text>
<text text-anchor="start" x="556.8862" y="-91.3" font-family="Times,serif" font-size="14.00" fill="#000000">parameter :varchar(255)</text>
<text text-anchor="start" x="556.8862" y="-77.3" font-family="Times,serif" font-size="14.00" fill="#000000">safety :tinyint(1)</text>
<text text-anchor="start" x="556.8862" y="-63.3" font-family="Times,serif" font-size="14.00" fill="#000000">has_visual :tinyint(1)</text>
<text text-anchor="start" x="556.8862" y="-49.3" font-family="Times,serif" font-size="14.00" fill="#000000">procedure_id :bigint(20)</text>
<text text-anchor="start" x="556.8862" y="-35.3" font-family="Times,serif" font-size="14.00" fill="#000000">oem_id :bigint(20)</text>
<text text-anchor="start" x="556.8862" y="-21.3" font-family="Times,serif" font-size="14.00" fill="#000000">created_at :datetime</text>
<text text-anchor="start" x="556.8862" y="-7.3" font-family="Times,serif" font-size="14.00" fill="#000000">id :bigint(20)</text>
</g>
<!-- Operation -->
<g id="node6" class="node">
<title>Operation</title>
<path fill="none" stroke="#000000" d="M359.8862,-56.5C359.8862,-56.5 489.1245,-56.5 489.1245,-56.5 495.1245,-56.5 501.1245,-62.5 501.1245,-68.5 501.1245,-68.5 501.1245,-158.5 501.1245,-158.5 501.1245,-164.5 495.1245,-170.5 489.1245,-170.5 489.1245,-170.5 359.8862,-170.5 359.8862,-170.5 353.8862,-170.5 347.8862,-164.5 347.8862,-158.5 347.8862,-158.5 347.8862,-68.5 347.8862,-68.5 347.8862,-62.5 353.8862,-56.5 359.8862,-56.5"/>
<text text-anchor="middle" x="424.5054" y="-155.3" font-family="Times,serif" font-size="14.00" fill="#000000">Operation</text>
<polyline fill="none" stroke="#000000" points="347.8862,-148.5 501.1245,-148.5 "/>
<text text-anchor="start" x="355.8862" y="-133.3" font-family="Times,serif" font-size="14.00" fill="#000000">id :bigint(20)</text>
<text text-anchor="start" x="355.8862" y="-119.3" font-family="Times,serif" font-size="14.00" fill="#000000">operator_id :bigint(20)</text>
<text text-anchor="start" x="355.8862" y="-105.3" font-family="Times,serif" font-size="14.00" fill="#000000">procedure_id :bigint(20)</text>
<text text-anchor="start" x="355.8862" y="-91.3" font-family="Times,serif" font-size="14.00" fill="#000000">last_used :datetime</text>
<text text-anchor="start" x="355.8862" y="-77.3" font-family="Times,serif" font-size="14.00" fill="#000000">created_at :datetime</text>
<text text-anchor="start" x="355.8862" y="-63.3" font-family="Times,serif" font-size="14.00" fill="#000000">updated_at :datetime</text>
</g>
<!-- Operator&#45;&gt;Operation -->
<g id="edge6" class="edge">
<title>Operator&#45;&gt;Operation</title>
<path fill="none" stroke="#ec5b0e" d="M437.1072,-506.99C433.1671,-497.1768 429.7599,-486.9879 427.5054,-477 404.6449,-375.7247 409.927,-254.4998 416.622,-180.789"/>
<ellipse fill="none" stroke="#ec5b0e" cx="438.6693" cy="-510.7217" rx="4" ry="4"/>
<polygon fill="#ec5b0e" stroke="#ec5b0e" points="416.6335,-180.6662 422.0534,-171.1334 417.1034,-175.6883 417.5733,-170.7105 417.5733,-170.7105 417.5733,-170.7105 417.1034,-175.6883 413.0932,-170.2876 416.6335,-180.6662 416.6335,-180.6662"/>
</g>
<!-- Operator&#45;&gt;Procedure -->
<g id="edge7" class="edge">
<title>Operator&#45;&gt;Procedure</title>
<path fill="none" stroke="#1971ed" d="M489.199,-504.3977C491.9007,-494.1518 494.7401,-483.3834 497.586,-472.5905"/>
<polygon fill="#1971ed" stroke="#1971ed" points="489.101,-504.7696 482.2,-513.2917 487.8261,-509.6044 486.5513,-514.4391 486.5513,-514.4391 486.5513,-514.4391 487.8261,-509.6044 490.9026,-515.5865 489.101,-504.7696 489.101,-504.7696"/>
<polygon fill="#1971ed" stroke="#1971ed" points="497.6479,-472.3556 504.5489,-463.8335 498.9227,-467.5209 500.1976,-462.6861 500.1976,-462.6861 500.1976,-462.6861 498.9227,-467.5209 495.8463,-461.5387 497.6479,-472.3556 497.6479,-472.3556"/>
</g>
<!-- Operator&#45;&gt;User -->
<g id="edge5" class="edge">
<title>Operator&#45;&gt;User</title>
<path fill="none" stroke="#aa34db" d="M392.7067,-509.3881C373.875,-494.5443 353.375,-478.3855 333.2361,-462.5113"/>
<ellipse fill="none" stroke="#aa34db" cx="395.9733" cy="-511.9629" rx="4" ry="4"/>
<ellipse fill="#aa34db" stroke="#aa34db" cx="329.8541" cy="-459.8455" rx="4" ry="4"/>
</g>
<!-- Procedure&#45;&gt;Step -->
<g id="edge8" class="edge">
<title>Procedure&#45;&gt;Step</title>
<path fill="none" stroke="#b58f8d" d="M563.629,-270.9479C568.1038,-259.5615 572.7043,-247.8552 577.2799,-236.2124"/>
<ellipse fill="none" stroke="#b58f8d" cx="562.1465" cy="-274.7202" rx="4" ry="4"/>
<polygon fill="#b58f8d" stroke="#b58f8d" points="577.2835,-236.2031 585.1294,-228.542 579.1123,-231.5496 580.9412,-226.896 580.9412,-226.896 580.9412,-226.896 579.1123,-231.5496 576.753,-225.2501 577.2835,-236.2031 577.2835,-236.2031"/>
</g>
<!-- Procedure&#45;&gt;Operation -->
<g id="edge9" class="edge">
<title>Procedure&#45;&gt;Operation</title>
<path fill="none" stroke="#db9049" d="M485.7078,-270.7903C473.8869,-240.4105 461.1853,-207.7674 450.4339,-180.1364"/>
<ellipse fill="none" stroke="#db9049" cx="487.235" cy="-274.7153" rx="4" ry="4"/>
<polygon fill="#db9049" stroke="#db9049" points="450.3433,-179.9034 450.9108,-168.9522 448.5302,-175.2437 446.717,-170.584 446.717,-170.584 446.717,-170.584 448.5302,-175.2437 442.5233,-172.2158 450.3433,-179.9034 450.3433,-179.9034"/>
</g>
<!-- ParlatyAdmin -->
<g id="node8" class="node">
<title>ParlatyAdmin</title>
<path fill="none" stroke="#000000" d="M12,-528.5C12,-528.5 121.0107,-528.5 121.0107,-528.5 127.0107,-528.5 133.0107,-534.5 133.0107,-540.5 133.0107,-540.5 133.0107,-602.5 133.0107,-602.5 133.0107,-608.5 127.0107,-614.5 121.0107,-614.5 121.0107,-614.5 12,-614.5 12,-614.5 6,-614.5 0,-608.5 0,-602.5 0,-602.5 0,-540.5 0,-540.5 0,-534.5 6,-528.5 12,-528.5"/>
<text text-anchor="middle" x="66.5054" y="-599.3" font-family="Times,serif" font-size="14.00" fill="#000000">ParlatyAdmin</text>
<polyline fill="none" stroke="#000000" points="0,-592.5 133.0107,-592.5 "/>
<text text-anchor="start" x="8" y="-577.3" font-family="Times,serif" font-size="14.00" fill="#000000">id :bigint(20)</text>
<text text-anchor="start" x="8" y="-563.3" font-family="Times,serif" font-size="14.00" fill="#000000">name :varchar(255)</text>
<text text-anchor="start" x="8" y="-549.3" font-family="Times,serif" font-size="14.00" fill="#000000">created_at :datetime</text>
<text text-anchor="start" x="8" y="-535.3" font-family="Times,serif" font-size="14.00" fill="#000000">updated_at :datetime</text>
</g>
<!-- ParlatyAdmin&#45;&gt;User -->
<g id="edge10" class="edge">
<title>ParlatyAdmin&#45;&gt;User</title>
<path fill="none" stroke="#16365e" d="M103.628,-521.7557C112.4729,-509.9035 122.2707,-496.7744 132.2914,-483.3467"/>
<ellipse fill="none" stroke="#16365e" cx="101.0765" cy="-525.1747" rx="4" ry="4"/>
<ellipse fill="#16365e" stroke="#16365e" cx="134.833" cy="-479.941" rx="4" ry="4"/>
</g>
<!-- Oem -->
<g id="node9" class="node">
<title>Oem</title>
<path fill="none" stroke="#000000" d="M417,-804.5C417,-804.5 526.0107,-804.5 526.0107,-804.5 532.0107,-804.5 538.0107,-810.5 538.0107,-816.5 538.0107,-816.5 538.0107,-878.5 538.0107,-878.5 538.0107,-884.5 532.0107,-890.5 526.0107,-890.5 526.0107,-890.5 417,-890.5 417,-890.5 411,-890.5 405,-884.5 405,-878.5 405,-878.5 405,-816.5 405,-816.5 405,-810.5 411,-804.5 417,-804.5"/>
<text text-anchor="middle" x="471.5054" y="-875.3" font-family="Times,serif" font-size="14.00" fill="#000000">Oem</text>
<polyline fill="none" stroke="#000000" points="405,-868.5 538.0107,-868.5 "/>
<text text-anchor="start" x="413" y="-853.3" font-family="Times,serif" font-size="14.00" fill="#000000">id :bigint(20)</text>
<text text-anchor="start" x="413" y="-839.3" font-family="Times,serif" font-size="14.00" fill="#000000">name :varchar(255)</text>
<text text-anchor="start" x="413" y="-825.3" font-family="Times,serif" font-size="14.00" fill="#000000">created_at :datetime</text>
<text text-anchor="start" x="413" y="-811.3" font-family="Times,serif" font-size="14.00" fill="#000000">updated_at :datetime</text>
</g>
<!-- Oem&#45;&gt;OemBusiness -->
<g id="edge12" class="edge">
<title>Oem&#45;&gt;OemBusiness</title>
<path fill="none" stroke="#39aef3" d="M471.5054,-796.1756C471.5054,-789.7765 471.5054,-783.1878 471.5054,-776.6699"/>
<ellipse fill="none" stroke="#39aef3" cx="471.5054" cy="-800.2426" rx="4" ry="4"/>
<polygon fill="#39aef3" stroke="#39aef3" points="471.5055,-776.5234 476.0054,-766.5233 471.5054,-771.5234 471.5054,-766.5234 471.5054,-766.5234 471.5054,-766.5234 471.5054,-771.5234 467.0054,-766.5234 471.5055,-776.5234 471.5055,-776.5234"/>
</g>
<!-- Oem&#45;&gt;Step -->
<g id="edge13" class="edge">
<title>Oem&#45;&gt;Step</title>
<path fill="none" stroke="#eff833" d="M543.5825,-799.5853C589.5382,-767.7715 640.5054,-729.5473 640.5054,-716.5 640.5054,-716.5 640.5054,-716.5 640.5054,-370.5 640.5054,-326.8474 638.322,-279.0949 635.6212,-236.7249"/>
<ellipse fill="none" stroke="#eff833" cx="540.1387" cy="-801.9589" rx="4" ry="4"/>
<polygon fill="#eff833" stroke="#eff833" points="635.6146,-236.6221 639.453,-226.3499 635.2886,-231.6327 634.9625,-226.6433 634.9625,-226.6433 634.9625,-226.6433 635.2886,-231.6327 630.4721,-226.9367 635.6146,-236.6221 635.6146,-236.6221"/>
<text text-anchor="middle" x="673.9434" y="-567.3" font-family="Times,serif" font-size="14.00" fill="#000000">saved_steps</text>
</g>
<!-- Oem&#45;&gt;User -->
<g id="edge11" class="edge">
<title>Oem&#45;&gt;User</title>
<path fill="none" stroke="#1f9741" d="M397.9144,-803.07C319.6661,-754.0736 203.9759,-675.9733 180.5054,-629 158.4405,-584.8399 161.6762,-531.4486 172.6743,-484.6813"/>
<ellipse fill="none" stroke="#1f9741" cx="401.4999" cy="-805.3075" rx="4" ry="4"/>
<ellipse fill="#1f9741" stroke="#1f9741" cx="173.7003" cy="-480.5181" rx="4" ry="4"/>
</g>
<!-- ApplicationRecord -->
<g id="node10" class="node">
<title>ApplicationRecord</title>
<ellipse fill="none" stroke="#000000" cx="633.5054" cy="-847.5" rx="77.2916" ry="18"/>
<text text-anchor="middle" x="633.5054" y="-843.3" font-family="Times,serif" font-size="14.00" fill="#000000">ApplicationRecord</text>
</g>
</g>
</svg>
