<?xml version="1.0" encoding="UTF-8" standalone="no"?>
<!-- Generated by graphviz version 2.38.0 (20140413.2041)
 -->

<!-- Title: models_diagram Pages: 1 -->

<svg
   xmlns:dc="http://purl.org/dc/elements/1.1/"
   xmlns:cc="http://creativecommons.org/ns#"
   xmlns:rdf="http://www.w3.org/1999/02/22-rdf-syntax-ns#"
   xmlns:svg="http://www.w3.org/2000/svg"
   xmlns="http://www.w3.org/2000/svg"
   xmlns:sodipodi="http://sodipodi.sourceforge.net/DTD/sodipodi-0.dtd"
   xmlns:inkscape="http://www.inkscape.org/namespaces/inkscape"
   width="817pt"
   height="500pt"
   viewBox="0.00 0.00 817.44 500.00"
   id="svg3880"
   version="1.1"
   inkscape:version="0.91 r13725"
   sodipodi:docname="models_brief.svg">
  <metadata
     id="metadata4202">
    <rdf:RDF>
      <cc:Work
         rdf:about="">
        <dc:format>image/svg+xml</dc:format>
        <dc:type
           rdf:resource="http://purl.org/dc/dcmitype/StillImage" />
      </cc:Work>
    </rdf:RDF>
  </metadata>
  <defs
     id="defs4200" />
  <sodipodi:namedview
     pagecolor="#ffffff"
     bordercolor="#666666"
     borderopacity="1"
     objecttolerance="10"
     gridtolerance="10"
     guidetolerance="10"
     inkscape:pageopacity="0"
     inkscape:pageshadow="2"
     inkscape:window-width="1645"
     inkscape:window-height="801"
     id="namedview4198"
     showgrid="false"
     inkscape:zoom="0.3776"
     inkscape:cx="510.625"
     inkscape:cy="312.5"
     inkscape:window-x="0"
     inkscape:window-y="31"
     inkscape:window-maximized="1"
     inkscape:current-layer="edge16" />
  <g
     id="graph0"
     class="graph"
     transform="scale(1 1) rotate(0) translate(4 496)">
    <title
       id="title3883">models_diagram</title>
    <polygon
       fill="white"
       stroke="none"
       points="-4,4 -4,-496 813.445,-496 813.445,4 -4,4"
       id="polygon3885" />
    <!-- _diagram_info -->
    <g
       id="node1"
       class="node">
      <title
         id="title3888">_diagram_info</title>
      <text
         text-anchor="start"
         x="8"
         y="-477.6"
         font-family="Times,serif"
         font-size="13.00"
         id="text3890">Models diagram</text>
      <text
         text-anchor="start"
         x="8"
         y="-463.6"
         font-family="Times,serif"
         font-size="13.00"
         id="text3892">Date: Jun 25 2020 - 22:00</text>
      <text
         text-anchor="start"
         x="8"
         y="-449.6"
         font-family="Times,serif"
         font-size="13.00"
         id="text3894">Migration version: 20200526224728</text>
      <text
         text-anchor="start"
         x="8"
         y="-435.6"
         font-family="Times,serif"
         font-size="13.00"
         id="text3896">Generated by RailRoady 1.5.3</text>
      <text
         text-anchor="start"
         x="8"
         y="-421.6"
         font-family="Times,serif"
         font-size="13.00"
         id="text3898">http://railroady.prestonlee.com</text>
    </g>
    <!-- Operation -->
    <g
       id="node2"
       class="node">
      <title
         id="title3901">Operation</title>
      <ellipse
         fill="white"
         stroke="black"
         cx="113"
         cy="-199"
         rx="46.2923"
         ry="18"
         id="ellipse3903" />
      <text
         text-anchor="middle"
         x="113"
         y="-195.3"
         font-family="Times,serif"
         font-size="14.00"
         id="text3905">Operation</text>
    </g>
    <!-- ParlatyAdmin -->
    <g
       id="node3"
       class="node">
      <title
         id="title3908">ParlatyAdmin</title>
      <ellipse
         fill="white"
         stroke="black"
         cx="749"
         cy="-91"
         rx="60.3893"
         ry="18"
         id="ellipse3910" />
      <text
         text-anchor="middle"
         x="749"
         y="-87.3"
         font-family="Times,serif"
         font-size="14.00"
         id="text3912">ParlatyAdmin</text>
    </g>
    <!-- User -->
    <g
       id="node14"
       class="node">
      <title
         id="title3915">User</title>
      <ellipse
         fill="white"
         stroke="black"
         cx="544"
         cy="-18"
         rx="27.0966"
         ry="18"
         id="ellipse3917" />
      <text
         text-anchor="middle"
         x="544"
         y="-14.3"
         font-family="Times,serif"
         font-size="14.00"
         id="text3919">User</text>
    </g>
    <!-- ParlatyAdmin&#45;&gt;User -->
    <g
       id="edge1"
       class="edge">
      <title
         id="title3922">ParlatyAdmin-&gt;User</title>
      <path
         fill="white"
         stroke="#f63f01"
         d="M713.807,-71.172C701.723,-65.1689 687.97,-58.8366 675,-54 642.817,-41.9991 604.766,-32.3086 577.989,-26.1932"
         id="path3924" />
      <ellipse
         fill="white"
         stroke="#f63f01"
         cx="717.524"
         cy="-73.0482"
         rx="4.00002"
         ry="4.00002"
         id="ellipse3926" />
      <ellipse
         fill="#f63f01"
         stroke="#f63f01"
         cx="573.963"
         cy="-25.2885"
         rx="4.00001"
         ry="4.00001"
         id="ellipse3928" />
    </g>
    <!-- ActionInstance 
<g id="node4" class="node"><title>ActionInstance</title>
<ellipse fill="white" stroke="black" cx="385" cy="-453" rx="63.8893" ry="18"/>
<text text-anchor="middle" x="385" y="-449.3" font-family="Times,serif" font-size="14.00">ActionInstance</text>
</g>-->
    <!-- ActionCopy
<g id="node5" class="node"><title>ActionCopy</title>
<ellipse fill="white" stroke="black" cx="521" cy="-453" rx="53.8905" ry="18"/>
<text text-anchor="middle" x="521" y="-449.3" font-family="Times,serif" font-size="14.00">ActionCopy</text>
</g> -->
    <!-- Oem -->
    <g
       id="node6"
       class="node">
      <title
         id="title3931">Oem</title>
      <ellipse
         fill="white"
         stroke="black"
         cx="518"
         cy="-286"
         rx="28.6953"
         ry="18"
         id="ellipse3933" />
      <text
         text-anchor="middle"
         x="518"
         y="-282.3"
         font-family="Times,serif"
         font-size="14.00"
         id="text3935">Oem</text>
    </g>
    <!-- Step -->
    <g
       id="node9"
       class="node">
      <title
         id="title3938">Step</title>
      <ellipse
         fill="white"
         stroke="black"
         cx="466"
         cy="-199"
         rx="27"
         ry="18"
         id="ellipse3940" />
      <text
         text-anchor="middle"
         x="466"
         y="-195.3"
         font-family="Times,serif"
         font-size="14.00"
         id="text3942">Step</text>
    </g>
    <!-- Oem&#45;&gt;Step -->
    <g
       id="edge4"
       class="edge">
      <title
         id="title3945">Oem-&gt;Step</title>
      <path
         fill="white"
         stroke="#cc5b69"
         d="M487.851,-271.05C479.628,-265.689 471.7,-258.713 467,-250 463.316,-243.17 462.083,-235.015 462.037,-227.293"
         id="path3947" />
      <ellipse
         fill="white"
         stroke="#cc5b69"
         cx="491.327"
         cy="-273.126"
         rx="4.00002"
         ry="4.00002"
         id="ellipse3949" />
      <polygon
         fill="#cc5b69"
         stroke="#cc5b69"
         points="462.044,-227.179 467.087,-217.442 462.319,-222.187 462.594,-217.195 462.594,-217.195 462.594,-217.195 462.319,-222.187 458.101,-216.947 462.044,-227.179 462.044,-227.179"
         id="polygon3951" />
      <text
         text-anchor="middle"
         x="499.5"
         y="-238.8"
         font-family="Times,serif"
         font-size="14.00"
         id="text3953">saved_steps</text>
    </g>
    <!-- Oem&#45;&gt;User -->
    <g
       id="edge2"
       class="edge">
      <title
         id="title3956">Oem-&gt;User</title>
      <path
         fill="white"
         stroke="#cdb45b"
         d="M528.971,-261.007C530.222,-257.385 531.299,-253.641 532,-250 533.261,-243.454 532.046,-241.667 532,-235 531.667,-186.999 528.127,-174.916 531,-127 532.707,-98.5416 536.921,-66.0911 540.092,-44.2527"
         id="path3958" />
      <ellipse
         fill="white"
         stroke="#cdb45b"
         cx="527.465"
         cy="-264.924"
         rx="4.00001"
         ry="4.00001"
         id="ellipse3960" />
      <ellipse
         fill="#cdb45b"
         stroke="#cdb45b"
         cx="540.706"
         cy="-40.108"
         rx="4.00001"
         ry="4.00001"
         id="ellipse3962" />
    </g>
    <!-- ClientAdmin -->
    <g
       id="node15"
       class="node">
      <title
         id="title3965">ClientAdmin</title>
      <ellipse
         fill="white"
         stroke="black"
         cx="589"
         cy="-145"
         rx="57.3905"
         ry="18"
         id="ellipse3967" />
      <text
         text-anchor="middle"
         x="589"
         y="-141.3"
         font-family="Times,serif"
         font-size="14.00"
         id="text3969">ClientAdmin</text>
    </g>
    <!-- Oem&#45;&gt;ClientAdmin -->
    <g
       id="edge5"
       class="edge">
      <title
         id="title3972">Oem-&gt;ClientAdmin</title>
      <path
         fill="white"
         stroke="#294011"
         d="M543.921,-267.577C549.91,-262.512 555.761,-256.556 560,-250 575.132,-226.599 582.469,-195.302 585.961,-173.173"
         id="path3974" />
      <ellipse
         fill="white"
         stroke="#294011"
         cx="540.574"
         cy="-270.227"
         rx="4.00002"
         ry="4.00002"
         id="ellipse3976" />
      <polygon
         fill="#294011"
         stroke="#294011"
         points="585.983,-173.022 591.84,-163.751 586.683,-168.071 587.384,-163.121 587.384,-163.121 587.384,-163.121 586.683,-168.071 582.929,-162.49 585.983,-173.022 585.983,-173.022"
         id="polygon3978" />
    </g>
    <!-- OemBusiness -->
    <g
       id="node16"
       class="node">
      <title
         id="title3981">OemBusiness</title>
      <ellipse
         fill="white"
         stroke="black"
         cx="275"
         cy="-199"
         rx="59.5901"
         ry="18"
         id="ellipse3983" />
      <text
         text-anchor="middle"
         x="275"
         y="-195.3"
         font-family="Times,serif"
         font-size="14.00"
         id="text3985">OemBusiness</text>
    </g>
    <!-- Oem&#45;&gt;OemBusiness -->
    <g
       id="edge3"
       class="edge">
      <title
         id="title3988">Oem-&gt;OemBusiness</title>
      <path
         fill="white"
         stroke="#b324b0"
         d="M485.684,-273.696C443.691,-259.007 370.062,-233.252 321.916,-216.411"
         id="path3990" />
      <ellipse
         fill="white"
         stroke="#b324b0"
         cx="489.587"
         cy="-275.061"
         rx="4.00001"
         ry="4.00001"
         id="ellipse3992" />
      <polygon
         fill="#b324b0"
         stroke="#b324b0"
         points="321.786,-216.366 313.833,-208.816 317.067,-214.715 312.347,-213.064 312.347,-213.064 312.347,-213.064 317.067,-214.715 310.861,-217.311 321.786,-216.366 321.786,-216.366"
         id="polygon3994" />
    </g>
    <!-- ApplicationRecord -->
    <g
       id="node7"
       class="node">
      <title
         id="title3997">ApplicationRecord</title>
      <ellipse
         fill="white"
         stroke="black"
         cx="670"
         cy="-453"
         rx="77.1866"
         ry="18"
         id="ellipse3999" />
      <text
         text-anchor="middle"
         x="670"
         y="-449.3"
         font-family="Times,serif"
         font-size="14.00"
         id="text4001">ApplicationRecord</text>
    </g>
    <!-- Author -->
    <g
       id="node8"
       class="node">
      <title
         id="title4004">Author</title>
      <ellipse
         fill="white"
         stroke="black"
         cx="268"
         cy="-453"
         rx="35.9954"
         ry="18"
         id="ellipse4006" />
      <text
         text-anchor="middle"
         x="268"
         y="-449.3"
         font-family="Times,serif"
         font-size="14.00"
         id="text4008">Author</text>
    </g>
    <!-- Author&#45;&gt;Operation -->
    <g
       id="edge7"
       class="edge">
      <title
         id="title4011">Author-&gt;Operation</title>
      <path
         fill="white"
         stroke="#052783"
         d="M244.073,-431.534C237.3,-425.812 229.894,-419.622 223,-414 172.026,-372.434 149.131,-364.783 124,-304 113.852,-279.455 111.71,-249.003 111.738,-227.408"
         id="path4013" />
      <ellipse
         fill="white"
         stroke="#052783"
         cx="247.542"
         cy="-434.475"
         rx="4.00002"
         ry="4.00002"
         id="ellipse4015" />
      <polygon
         fill="#052783"
         stroke="#052783"
         points="111.739,-227.292 116.409,-217.37 111.824,-222.293 111.909,-217.293 111.909,-217.293 111.909,-217.293 111.824,-222.293 107.41,-217.217 111.739,-227.292 111.739,-227.292"
         id="polygon4017" />
    </g>
    <!-- Procedure -->
    <g
       id="node10"
       class="node">
      <title
         id="title4020">Procedure</title>
      <ellipse
         fill="white"
         stroke="black"
         cx="231"
         cy="-359"
         rx="46.2923"
         ry="18"
         id="ellipse4022" />
      <text
         text-anchor="middle"
         x="231"
         y="-355.3"
         font-family="Times,serif"
         font-size="14.00"
         id="text4024">Procedure</text>
    </g>
    <!-- Author&#45;&gt;Procedure -->
    <g
       id="edge8"
       class="edge">
      <title
         id="title4027">Author-&gt;Procedure</title>
      <path
         fill="white"
         stroke="#9516d3"
         d="M257.346,-425.509C252.449,-413.332 246.651,-398.916 241.743,-386.712"
         id="path4029" />
      <polygon
         fill="#9516d3"
         stroke="#9516d3"
         points="257.482,-425.848 257.039,-436.805 259.348,-430.487 261.214,-435.126 261.214,-435.126 261.214,-435.126 259.348,-430.487 265.389,-433.447 257.482,-425.848 257.482,-425.848"
         id="polygon4031" />
      <polygon
         fill="#9516d3"
         stroke="#9516d3"
         points="241.6,-386.357 242.044,-375.4 239.734,-381.718 237.869,-377.079 237.869,-377.079 237.869,-377.079 239.734,-381.718 233.694,-378.758 241.6,-386.357 241.6,-386.357"
         id="polygon4033" />
    </g>
    <!-- Author&#45;&gt;User -->
    <!-- Author&#45;&gt;OemBusiness -->
    <g
       id="edge9"
       class="edge">
      <title
         id="title4045">Author-&gt;OemBusiness</title>
      <path
         fill="white"
         stroke="#34d073"
         d="M276.137,-424.894C279.962,-410.762 284.094,-393.107 286,-377 292.235,-324.304 285.089,-262.338 279.753,-227.467"
         id="path4047" />
      <polygon
         fill="#34d073"
         stroke="#34d073"
         points="276.022,-425.305 268.982,-433.712 274.668,-430.118 273.314,-434.931 273.314,-434.931 273.314,-434.931 274.668,-430.118 277.646,-436.149 276.022,-425.305 276.022,-425.305"
         id="polygon4049" />
      <polygon
         fill="#34d073"
         stroke="#34d073"
         points="279.682,-227.018 282.547,-216.433 278.893,-222.081 278.104,-217.144 278.104,-217.144 278.104,-217.144 278.893,-222.081 273.66,-217.854 279.682,-227.018 279.682,-227.018"
         id="polygon4051" />
    </g>
    <!-- Procedure&#45;&gt;Operation -->
    <g
       id="edge11"
       class="edge">
      <title
         id="title4054">Procedure-&gt;Operation</title>
      <path
         fill="white"
         stroke="#59f548"
         d="M193.354,-341.479C176.77,-332.52 158.3,-319.978 146,-304 128.643,-281.453 120.294,-249.559 116.357,-227.05"
         id="path4056" />
      <ellipse
         fill="white"
         stroke="#59f548"
         cx="197.26"
         cy="-343.502"
         rx="4.00002"
         ry="4.00002"
         id="ellipse4058" />
      <polygon
         fill="#59f548"
         stroke="#59f548"
         points="116.351,-227.015 119.245,-216.438 115.576,-222.076 114.8,-217.136 114.8,-217.136 114.8,-217.136 115.576,-222.076 110.354,-217.834 116.351,-227.015 116.351,-227.015"
         id="polygon4060" />
    </g>
    <!-- Procedure&#45;&gt;Step -->
    <g
       id="edge10"
       class="edge">
      <title
         id="title4063">Procedure-&gt;Step</title>
      <path
         fill="white"
         stroke="#81a7e7"
         d="M284.233,-353.648C323.918,-347.924 377.365,-334.672 414,-304 437.865,-284.019 451.845,-250.382 459.191,-226.785"
         id="path4065" />
      <ellipse
         fill="white"
         stroke="#81a7e7"
         cx="279.949"
         cy="-354.225"
         rx="4.00001"
         ry="4.00001"
         id="ellipse4067" />
      <polygon
         fill="#81a7e7"
         stroke="#81a7e7"
         points="459.231,-226.647 466.348,-218.304 460.629,-221.847 462.027,-217.046 462.027,-217.046 462.027,-217.046 460.629,-221.847 457.707,-215.788 459.231,-226.647 459.231,-226.647"
         id="polygon4069" />
    </g>
    <!-- Operator -->
    <g
       id="node12"
       class="node">
      <title
         id="title4072">Operator</title>
      <ellipse
         fill="white"
         stroke="black"
         cx="197"
         cy="-286"
         rx="42.4939"
         ry="18"
         id="ellipse4074" />
      <text
         text-anchor="middle"
         x="197"
         y="-282.3"
         font-family="Times,serif"
         font-size="14.00"
         id="text4076">Operator</text>
    </g>
    <!-- Procedure&#45;&gt;Operator -->
    <g
       id="edge12"
       class="edge">
      <title
         id="title4079">Procedure-&gt;Operator</title>
      <path
         fill="white"
         stroke="#664170"
         d="M218.613,-332.133C215.633,-325.91 212.448,-319.259 209.464,-313.029"
         id="path4081" />
      <polygon
         fill="#664170"
         stroke="#664170"
         points="218.623,-332.155 218.884,-343.118 220.783,-336.664 222.942,-341.174 222.942,-341.174 222.942,-341.174 220.783,-336.664 227.001,-339.23 218.623,-332.155 218.623,-332.155"
         id="polygon4083" />
      <polygon
         fill="#664170"
         stroke="#664170"
         points="209.319,-312.724 209.058,-301.762 207.159,-308.215 205,-303.705 205,-303.705 205,-303.705 207.159,-308.215 200.941,-305.649 209.319,-312.724 209.319,-312.724"
         id="polygon4085" />
    </g>
    <!-- Device -->
    <g
       id="node13"
       class="node">
      <title
         id="title4088">Device</title>
      <ellipse
         fill="white"
         stroke="black"
         cx="369"
         cy="-286"
         rx="35.9954"
         ry="18"
         id="ellipse4090" />
      <text
         text-anchor="middle"
         x="369"
         y="-282.3"
         font-family="Times,serif"
         font-size="14.00"
         id="text4092">Device</text>
    </g>
    <!-- Procedure&#45;&gt;Device -->
    <g
       id="edge13"
       class="edge">
      <title
         id="title4095">Procedure-&gt;Device</title>
      <path
         fill="white"
         stroke="#3adfa3"
         d="M265.339,-340.333C286.902,-329.239 314.566,-315.006 335.891,-304.034"
         id="path4097" />
      <ellipse
         fill="white"
         stroke="#3adfa3"
         cx="261.492"
         cy="-342.312"
         rx="4.00002"
         ry="4.00002"
         id="ellipse4099" />
      <polygon
         fill="#3adfa3"
         stroke="#3adfa3"
         points="336.01,-303.973 346.961,-303.4 340.456,-301.686 344.902,-299.398 344.902,-299.398 344.902,-299.398 340.456,-301.686 342.843,-295.397 336.01,-303.973 336.01,-303.973"
         id="polygon4101" />
    </g>
    <!-- Procedure&#45;&gt;OemBusiness -->
    <g
       id="edge14"
       class="edge">
      <title
         id="title4104">Procedure-&gt;OemBusiness</title>
      <path
         fill="white"
         stroke="#c1c00e"
         d="M239.669,-331.405C242.427,-322.699 245.427,-312.963 248,-304 255.484,-277.924 263.178,-247.912 268.429,-226.851"
         id="path4106" />
      <polygon
         fill="#c1c00e"
         stroke="#c1c00e"
         points="239.632,-331.519 232.297,-339.67 238.107,-336.281 236.582,-341.043 236.582,-341.043 236.582,-341.043 238.107,-336.281 240.868,-342.415 239.632,-331.519 239.632,-331.519"
         id="polygon4108" />
      <polygon
         fill="#c1c00e"
         stroke="#c1c00e"
         points="268.463,-226.712 275.236,-218.087 269.666,-221.858 270.868,-217.005 270.868,-217.005 270.868,-217.005 269.666,-221.858 266.5,-215.923 268.463,-226.712 268.463,-226.712"
         id="polygon4110" />
    </g>
    <!-- OperatorAdmin -->
    <g
       id="node11"
       class="node">
      <title
         id="title4113">OperatorAdmin</title>
      <ellipse
         fill="white"
         stroke="black"
         cx="385"
         cy="-91"
         rx="66.8882"
         ry="18"
         id="ellipse4115" />
      <text
         text-anchor="middle"
         x="385"
         y="-87.3"
         font-family="Times,serif"
         font-size="14.00"
         id="text4117">OperatorAdmin</text>
    </g>
    <!-- OperatorAdmin&#45;&gt;User -->
    <g
       id="edge15"
       class="edge">
      <title
         id="title4120">OperatorAdmin-&gt;User</title>
      <path
         fill="white"
         stroke="#37ad8a"
         d="M425.489,-71.92C453.225,-59.5349 489.383,-43.3886 514.431,-32.2037"
         id="path4122" />
      <ellipse
         fill="white"
         stroke="#37ad8a"
         cx="421.597"
         cy="-73.6578"
         rx="4.00002"
         ry="4.00002"
         id="ellipse4124" />
      <ellipse
         fill="#37ad8a"
         stroke="#37ad8a"
         cx="518.174"
         cy="-30.5324"
         rx="4.00002"
         ry="4.00002"
         id="ellipse4126" />
    </g>
    <!-- Operator&#45;&gt;Operation -->
    <g
       id="edge17"
       class="edge">
      <title
         id="title4129">Operator-&gt;Operation</title>
      <path
         fill="white"
         stroke="#72afed"
         d="M175.288,-263.03C163.31,-250.909 148.433,-235.855 136.223,-223.499"
         id="path4131" />
      <ellipse
         fill="white"
         stroke="#72afed"
         cx="178.389"
         cy="-266.167"
         rx="4.00002"
         ry="4.00002"
         id="ellipse4133" />
      <polygon
         fill="#72afed"
         stroke="#72afed"
         points="136.044,-223.318 132.215,-213.042 132.529,-219.762 129.015,-216.205 129.015,-216.205 129.015,-216.205 132.529,-219.762 125.814,-219.368 136.044,-223.318 136.044,-223.318"
         id="polygon4135" />
    </g>
    <!-- Operator&#45;&gt;User -->
    <g
       id="edge16"
       class="edge">
      <title
         id="title4138">Operator-&gt;User</title>
      <ellipse
         fill="white"
         stroke="#9a0343"
         cx="194.886"
         cy="-263.941"
         rx="4"
         ry="4"
         id="ellipse4142" />
      <ellipse
         fill="#9a0343"
         stroke="#9a0343"
         cx="512.825"
         cy="-20.508"
         rx="4"
         ry="4"
         id="ellipse4144" />
    </g>
    <!-- Operator&#45;&gt;OemBusiness -->
    <g
       id="edge18"
       class="edge">
      <title
         id="title4147">Operator-&gt;OemBusiness</title>
      <path
         fill="white"
         stroke="#38f384"
         d="M218.568,-261.497C229.227,-249.881 242.073,-235.882 252.815,-224.176"
         id="path4149" />
      <polygon
         fill="#38f384"
         stroke="#38f384"
         points="218.432,-261.644 208.356,-265.97 215.052,-265.328 211.671,-269.012 211.671,-269.012 211.671,-269.012 215.052,-265.328 214.987,-272.055 218.432,-261.644 218.432,-261.644"
         id="polygon4151" />
      <polygon
         fill="#38f384"
         stroke="#38f384"
         points="253.101,-223.864 263.178,-219.538 256.482,-220.18 259.863,-216.496 259.863,-216.496 259.863,-216.496 256.482,-220.18 256.547,-213.453 253.101,-223.864 253.101,-223.864"
         id="polygon4153" />
    </g>
    <!-- Device&#45;&gt;Step -->
    <g
       id="edge19"
       class="edge">
      <title
         id="title4156">Device-&gt;Step</title>
      <path
         fill="white"
         stroke="#ed010a"
         d="M390.813,-263.635C400.237,-254.612 411.492,-244.107 422,-235 427.882,-229.902 434.37,-224.583 440.514,-219.676"
         id="path4158" />
      <ellipse
         fill="white"
         stroke="#ed010a"
         cx="387.791"
         cy="-266.546"
         rx="4.00002"
         ry="4.00002"
         id="ellipse4160" />
      <polygon
         fill="#ed010a"
         stroke="#ed010a"
         points="440.743,-219.496 451.38,-216.832 444.667,-216.398 448.592,-213.3 448.592,-213.3 448.592,-213.3 444.667,-216.398 445.804,-209.768 440.743,-219.496 440.743,-219.496"
         id="polygon4162" />
    </g>
    <!-- Action -->
    <g
       id="node17"
       class="node">
      <title
         id="title4165">Action</title>
      <ellipse
         fill="white"
         stroke="black"
         cx="387"
         cy="-199"
         rx="34.394"
         ry="18"
         id="ellipse4167" />
      <text
         text-anchor="middle"
         x="387"
         y="-195.3"
         font-family="Times,serif"
         font-size="14.00"
         id="text4169">Action</text>
    </g>
    <!-- Device&#45;&gt;Action -->
    <g
       id="edge20"
       class="edge">
      <title
         id="title4172">Device-&gt;Action</title>
      <path
         fill="white"
         stroke="#90f848"
         d="M374.359,-259.694C376.538,-249.405 379.059,-237.499 381.274,-227.039"
         id="path4174" />
      <ellipse
         fill="white"
         stroke="#90f848"
         cx="373.471"
         cy="-263.886"
         rx="4.00001"
         ry="4.00001"
         id="ellipse4176" />
      <polygon
         fill="#90f848"
         stroke="#90f848"
         points="381.291,-226.958 387.765,-218.108 382.327,-222.067 383.363,-217.175 383.363,-217.175 383.363,-217.175 382.327,-222.067 378.96,-216.243 381.291,-226.958 381.291,-226.958"
         id="polygon4178" />
    </g>
    <!-- ClientAdmin&#45;&gt;User -->
    <g
       id="edge21"
       class="edge">
      <title
         id="title4181">ClientAdmin-&gt;User</title>
      <path
         fill="white"
         stroke="#40e051"
         d="M580.127,-119.353C572.22,-97.3877 560.709,-65.4148 552.818,-43.4954"
         id="path4183" />
      <ellipse
         fill="white"
         stroke="#40e051"
         cx="581.482"
         cy="-123.118"
         rx="4.00001"
         ry="4.00001"
         id="ellipse4185" />
      <ellipse
         fill="#40e051"
         stroke="#40e051"
         cx="551.443"
         cy="-39.6754"
         rx="4.00001"
         ry="4.00001"
         id="ellipse4187" />
    </g>
    <!-- OemBusiness&#45;&gt;OperatorAdmin -->
    <g
       id="edge22"
       class="edge">
      <title
         id="title4190">OemBusiness-&gt;OperatorAdmin</title>
      <path
         fill="white"
         stroke="#885ed1"
         d="M298.072,-175.767C316.327,-158.176 341.76,-133.667 360.401,-115.705"
         id="path4192" />
      <ellipse
         fill="white"
         stroke="#885ed1"
         cx="295.068"
         cy="-178.662"
         rx="4.00002"
         ry="4.00002"
         id="ellipse4194" />
      <polygon
         fill="#885ed1"
         stroke="#885ed1"
         points="360.732,-115.385 371.056,-111.687 364.333,-111.916 367.933,-108.446 367.933,-108.446 367.933,-108.446 364.333,-111.916 364.811,-105.206 360.732,-115.385 360.732,-115.385"
         id="polygon4196" />
    </g>
  </g>
</svg>
